<?xml version="1.0" encoding="utf-8"?>
<!-- Generator: Adobe Illustrator 25.3.0, SVG Export Plug-In . SVG Version: 6.00 Build 0)  -->
<svg version="1.1" id="Layer_1" xmlns="http://www.w3.org/2000/svg" xmlns:xlink="http://www.w3.org/1999/xlink" x="0px" y="0px"
	 viewBox="0 0 266.93 177.11" style="enable-background:new 0 0 266.93 177.11;" xml:space="preserve">
<style type="text/css">
	.st0{fill:#BB5A7D;}
	.st1{fill:#F8EFF2;}
	.st2{fill:#2E2E2E;}
	.st3{fill:#FFFFFF;}
</style>
<path class="st0" d="M31.87,61.05v6.19c0,0,0.55,3.52,3.34,3.6c2.79,0.08,3.37,0.08,3.37,0.08s3.38-0.83,3.48-3.28
	c0.09-2.45,0.13-6.59,0.13-6.59s-1.92,0.84-5.38,0.81C33.34,61.83,31.87,61.05,31.87,61.05z"/>
<path id="die" class="st1" d="M31.62,176.95c-4.07-5.66-10.92-16.82-13.16-32.37c-1.02-7.12-2.46-24.76,6.86-42.17
	c5.62-10.51,9.79-10.9,27.19-27.54c26.53-25.38,29.27-34.82,52.38-51.24c16.58-11.78,24.3-13.28,28.18-13.77
	c20.69-2.62,37.69,10.09,40.78,12.49c20.91,16.23,14.32,33.46,37.46,53.8c12.2,10.72,16.86,8.42,25.53,16.33
	c12.23,11.17,22.7,33.76,13.18,84.29C177.22,176.84,104.42,176.89,31.62,176.95z"/>
<path class="st0" d="M217.26,45c-1.81-0.76-3.61-1.53-5.37-2.39c-0.42-0.2-0.81-0.7-0.97-1.15c-0.65-1.81-1.22-3.64-1.77-5.48
	c-0.11-0.36-0.1-0.87,0.08-1.19c1.02-1.93,2.12-3.81,3.14-5.74c0.15-0.29,0.12-0.87-0.08-1.11c-1.39-1.69-2.86-3.31-4.27-4.98
	c-0.38-0.45-0.7-0.5-1.23-0.28c-1.95,0.82-3.92,1.61-5.9,2.35c-0.35,0.13-0.93,0.12-1.27-0.03c-1.79-0.78-3.57-1.6-5.32-2.48
	c-0.4-0.2-0.83-0.61-0.97-1.01c-0.63-1.89-1.18-3.82-1.7-5.74c-0.21-0.78-0.52-1.07-1.77-0.92c-1.69,0.2-3.4,0.05-5.06-0.34
	c-1.13-0.27-1.51-0.06-1.82,0.69c-0.75,1.81-1.58,3.58-2.33,5.39c-0.31,0.76-0.78,0.98-1.77,1.17c-1.48,0.29-2.93,0.73-4.29,1.4
	c-0.91,0.45-1.4,0.49-2.09,0.09c-1.79-1.05-3.62-2.02-5.4-3.07c-0.67-0.39-1.04-0.25-1.72,0.54c-1.19,1.38-2.57,2.56-4.08,3.57
	c-0.85,0.56-0.87,0.97-0.59,1.65c0.8,1.91,1.58,3.83,2.29,5.78c0.14,0.4,0.07,0.98-0.12,1.37c-0.88,1.74-1.82,3.47-2.8,5.16
	c-0.24,0.42-0.69,0.85-1.13,0.99c-2.01,0.62-4.05,1.16-6.09,1.69c-0.73,0.19-1.02,0.5-0.94,1.52c0.13,1.78,0.03,3.57-0.32,5.32
	c-0.21,1.04-0.12,1.44,0.63,1.74c2,0.79,3.99,1.59,5.94,2.48c0.42,0.19,0.79,0.7,0.97,1.15c0.7,1.75,1.25,3.55,1.99,5.28
	c0.3,0.7,0.29,1.21-0.08,1.84c-0.99,1.7-1.9,3.43-2.88,5.13c-0.32,0.56-0.33,0.94,0.13,1.44c0.94,1.02,1.66,1.81,2.56,2.85
	l1.23,1.33c0.53,0.57,1.32,0.81,2.08,0.64c0.33-0.08,0.71-0.18,1.11-0.34c1.5-0.6,2.78-1.1,4.28-1.72c0.6-0.25,1.04-0.19,1.63,0.14
	c1.69,0.98,3.47,1.8,5.18,2.75c0.36,0.2,0.72,0.61,0.84,1c0.62,2.05,1.19,4.12,1.73,6.2c0.2,0.78,0.61,0.95,1.73,0.84
	c1.61-0.16,3.24-0.1,4.81,0.28c1.33,0.32,1.73,0.19,2.06-0.64c0.77-1.96,1.58-3.91,2.46-5.83c0.18-0.4,0.64-0.77,1.06-0.94
	c1.86-0.73,3.73-1.4,5.63-2.03c0.39-0.13,0.94-0.13,1.29,0.06c2.09,1.09,4.15,2.26,6.29,3.44c1.84-1.64,3.68-3.25,5.47-4.92
	c0.22-0.21,0.29-0.8,0.17-1.11c-0.74-1.98-1.57-3.92-2.31-5.89c-0.14-0.36-0.15-0.87-0.01-1.22c0.78-1.85,1.6-3.69,2.47-5.49
	c0.18-0.37,0.64-0.77,1.03-0.9c1.89-0.63,3.81-1.19,5.74-1.72c0.48-0.13,0.82-0.56,0.85-1.06c0.1-2.11,0.23-4.23,0.4-6.33
	C218.1,45.55,217.86,45.25,217.26,45z M197.61,48.11c-0.44,6.82-6.28,11.96-13.12,11.52c-6.83-0.43-11.96-6.28-11.52-13.12
	c0.44-6.88,6.28-11.97,13.22-11.51C192.92,35.44,198.04,41.32,197.61,48.11z"/>
<path class="st0" d="M265.86,113.47c-2.34-0.86-4.67-1.74-6.96-2.73c-0.54-0.23-1.06-0.84-1.29-1.4c-0.93-2.26-1.76-4.55-2.56-6.86
	c-0.16-0.46-0.17-1.1,0.03-1.52c1.19-2.51,2.48-4.97,3.66-7.48c0.18-0.38,0.1-1.12-0.16-1.41c-1.86-2.06-3.82-4.04-5.71-6.08
	c-0.5-0.55-0.92-0.6-1.58-0.29c-2.44,1.15-4.89,2.27-7.37,3.32c-0.44,0.19-1.17,0.2-1.62,0.03c-2.32-0.89-4.63-1.84-6.9-2.85
	c-0.52-0.23-1.1-0.73-1.29-1.23c-0.9-2.37-1.71-4.78-2.49-7.2c-0.31-0.98-0.72-1.33-2.31-1.06c-2.14,0.36-4.32,0.26-6.45-0.14
	c-1.45-0.27-1.93,0.02-2.28,0.98c-0.85,2.34-1.81,4.64-2.66,6.99c-0.35,0.98-0.93,1.29-2.18,1.59c-1.87,0.45-3.69,1.1-5.37,2.03
	c-1.13,0.62-1.76,0.7-2.65,0.23c-2.33-1.23-4.71-2.37-7.04-3.59c-0.87-0.45-1.34-0.25-2.16,0.78c-1.43,1.82-3.12,3.41-4.98,4.77
	c-1.05,0.77-1.05,1.28-0.66,2.12c1.12,2.38,2.22,4.78,3.24,7.21c0.21,0.49,0.15,1.25-0.08,1.75c-1.02,2.27-2.11,4.51-3.27,6.71
	c-0.28,0.54-0.83,1.12-1.38,1.32c-2.52,0.91-5.08,1.71-7.65,2.49c-0.92,0.28-1.26,0.7-1.11,1.99c0.27,2.26,0.25,4.54-0.1,6.79
	c-0.21,1.34-0.07,1.84,0.89,2.17c2.58,0.89,5.16,1.8,7.69,2.82c0.54,0.22,1.05,0.85,1.3,1.41c0.99,2.18,1.79,4.45,2.83,6.6
	c0.42,0.88,0.44,1.52,0.01,2.35c-1.16,2.21-2.21,4.47-3.36,6.69c-0.38,0.73-0.37,1.21,0.25,1.83c1.25,1.24,2.21,2.2,3.42,3.48
	l1.64,1.62c0.7,0.7,1.72,0.96,2.68,0.7c0.42-0.11,0.89-0.27,1.39-0.5c1.88-0.85,3.47-1.55,5.34-2.43c0.75-0.36,1.31-0.3,2.08,0.09
	c2.21,1.14,4.51,2.1,6.74,3.2c0.47,0.23,0.95,0.73,1.12,1.22c0.91,2.57,1.74,5.17,2.55,7.78c0.3,0.98,0.83,1.17,2.24,0.97
	c2.04-0.29,4.11-0.32,6.13,0.08c1.71,0.33,2.21,0.15,2.58-0.92c0.87-2.54,1.79-5.06,2.79-7.54c0.21-0.51,0.77-1.02,1.29-1.25
	c2.32-1.03,4.67-1.99,7.03-2.9c0.49-0.19,1.19-0.21,1.64,0c2.72,1.27,5.4,2.63,8.19,4.02c2.25-2.2,4.5-4.34,6.67-6.57
	c0.27-0.28,0.32-1.03,0.15-1.43c-1.05-2.47-2.21-4.89-3.27-7.35c-0.19-0.45-0.25-1.1-0.08-1.55c0.88-2.4,1.82-4.78,2.83-7.12
	c0.21-0.48,0.77-1.02,1.26-1.2c2.37-0.91,4.78-1.72,7.2-2.51c0.61-0.2,1.01-0.76,1.01-1.4c0-2.69,0.05-5.38,0.15-8.07
	C266.96,114.13,266.64,113.76,265.86,113.47z M225.04,133.94c-8.7-0.16-15.56-7.3-15.39-16.02c0.17-8.77,7.3-15.57,16.14-15.39
	c8.59,0.18,15.44,7.36,15.27,16.02C240.89,127.25,233.75,134.11,225.04,133.94z"/>
<path class="st2" d="M174.84,102.34c0,0,0.05,7.89,0.23,9.27c0.18,1.38,0.59,3.36,2.4,3.89c1.81,0.53,3.19,0.64,5.26,0.82
	c2.07,0.18,6.37-0.17,7.8-1.56c1.43-1.39,1.09-12.8,1.09-12.8l0.65,0.08l0.3-0.74c0,0,0.63-3.29,0.41-4.7
	c-0.22-1.42-0.8-5.6-3.47-6.75c-2.67-1.16-8.37-4.45-13.2,0.98c0,0-2.75,0.58-2.89,3.77c-0.14,3.19,0.31,7.45,0.31,7.45
	L174.84,102.34z"/>
<path class="st2" d="M173.12,122.43c0,0-15.48,0.05-21.56,13.41c-6.08,13.36-6.58,18.89-6.89,21.4c-0.31,2.5-3.19,16.92,7.2,19.31
	h6.01l57.28,0.29c0,0,7.11-2.44,7.36-10.53c0.25-8.08-1.71-15.63-2.91-19.15c-1.19-3.51-4.38-13.09-7.31-16.03
	c-2.94-2.94-6.3-5.81-12.31-7.49c-6.02-1.68-6.85-1.28-6.85-1.28L173.12,122.43z"/>
<circle class="st2" cx="108.61" cy="92.39" r="49.86"/>
<path class="st3" d="M86.68,94.44c-2.3-2.3-6.03-2.3-8.33,0l-2.27,2.27c-2.3,2.3-2.3,6.03,0,8.33l16.6,16.6c2.3,2.3,6.03,2.3,8.33,0
	l34.17-33.33c2.3-2.3,2.3-6.03,0-8.33l-2.27-2.27c-2.3-2.3-6.03-2.3-8.33,0l-27.73,26.9L86.68,94.44z"/>
<path class="st0" d="M87.92,100.13c0,0-9.43,0.18-16.03,9.85c0,0-1.97,2.71-3.69,8.42c-1.72,5.7-3.59,15.74-3.59,15.74
	s-1.4,6.06-1.18,10.03c0.22,3.97,1.78,9.41,8.59,10.33l-0.22,22.34h48.78l-0.22-22.34c0,0,5.91,0.22,8.27-3.47
	c2.36-3.7,2.57-7.91,1.92-12.54c-0.65-4.63-3.77-17.54-4.59-20.8c-0.82-3.26-3.72-8.8-7.02-11.89c-3.3-3.09-7.82-5.3-12.2-5.67
	H87.92z"/>
<path class="st3" d="M105.03,84.1v0.7c0,0,3.65-0.71,4.08,2.29c0,0,0.13,4.25-4.28,2.62c0,0-0.61,4.51-2.18,5.86l-0.03,0.63
	l3.76,3.82l-1.76,10.62l-4.13,0.05l-3.37-4.73l-3.23,4.65l-4.03,0.03l-2.18-10.36l4.2-3.69v-1.01c0,0-2.19-2.3-2.24-5.48L89.29,90
	c0,0-3.32,0.93-3.88-2.62c-0.55-3.55,4.02-2.58,4.02-2.58v-1.87c0,0,2.08-2.59,2.74-4.98c0,0,4.65,0.4,7.95,2.62
	S105.03,84.1,105.03,84.1z"/>
<path class="st3" d="M81.95,111.54c0,0-3.33,1.63-3.8,4.69c-0.48,3.06,0.09,7.11,5.29,9.19l0.12-12.63L81.95,111.54z"/>
<path class="st3" d="M85.17,109.95l0.6,0.68h1.75C87.51,110.62,86.15,110.01,85.17,109.95z"/>
<path class="st3" d="M110.64,114.11v4.06c0,0-2.61,0.7-4.45,0.64s-4.49,0.33-5.03,2.18c-0.54,1.86,0.85,2.13,0.85,2.13
	s-1.66,0.61-1.77,2.07c-0.1,1.46,0.79,1.94,0.79,1.94s-0.6,0.99-0.4,1.87c0.2,0.88,0.77,2.17,4.24,2.31
	c3.46,0.14,6.42-0.03,8.25-1.05c1.83-1.02,2.41-0.71,3.26-4.04c0.85-3.33,0.85-6.69-0.31-8.18
	C114.92,116.54,114.99,114.3,110.64,114.11z"/>
<path class="st3" d="M108.91,146.94H85.28c-1.01,0-1.84-0.83-1.84-1.84v-32.53c0-1.01,0.83-1.84,1.84-1.84h23.63
	c1.01,0,1.84,0.83,1.84,1.84v32.53C110.76,146.11,109.93,146.94,108.91,146.94z"/>
<path class="st0" d="M85.86,110.8l-3.61-3.5l-2.15,2.15l3.46,3.35C83.56,112.8,84.02,110.59,85.86,110.8z"/>
<path class="st3" d="M190.98,100.18l-0.28,6.29c0,0-0.6,1.16-1.38,1.07c-3.07-0.36-4.04,1.03-5.64,0.58
	c-1.09-0.31-1.53,0.29-2.91-0.15c-1.22-0.39-1.09-0.56-2.25-0.46c-1.16,0.1-2.22,0.1-2.55-0.92l-0.26-6.4c0,0,1.32-3.24,1.42-4.53
	c0,0,3.16,2.15,6.9,1.67c3.74-0.48,5.57-0.97,5.57-0.97L190.98,100.18z"/>
<path class="st3" d="M193.14,122.38l-4.12-3.49l-0.22-3.2c0,0-2.24,0.84-5.37,0.62c-3.14-0.23-5.95-0.8-5.95-0.8l-0.1,3.68
	l-3.85,3.15l3.28,16.87h0.68l3.14,0.21l0.87-3.1l-1.36-2.74l3.19-6.8l3.25,7c-0.43,1.01-1.03,2.46-1.03,2.46l0.93,3.09h2.9
	l-0.07-0.18l0.58,0.06L193.14,122.38z"/>
<path class="st0" d="M207.98,176.84h-49.12c-1.85,0-3.35-1.5-3.35-3.35v-30.73c0-1.85,1.5-3.35,3.35-3.35h49.12
	c1.85,0,3.35,1.5,3.35,3.35v30.73C211.33,175.34,209.83,176.84,207.98,176.84z"/>
<circle class="st3" cx="182.45" cy="159.72" r="3.94"/>
<path class="st0" d="M88.33,84.58c0,0-2.43-8.49,2.26-9.4c0,0,1.38-3.09,6.16-3.05c4.79,0.04,7.6,1.6,8.87,4.67
	c1.27,3.07,0.45,7.31,0.45,7.31l-1.04,0.7v-0.7c0,0-5.02-5.77-12.56-6.23c0,0-1.96,4.37-3.04,5.06v1.87L88.33,84.58z"/>
<ellipse transform="matrix(0.7071 -0.7071 0.7071 0.7071 -20.8831 36.5005)" class="st0" cx="33.62" cy="43.46" rx="16.79" ry="16.79"/>
<polygon class="st2" points="93.9,110.62 96.98,105.97 100.34,110.46 "/>
<polygon class="st3" points="80.09,109.44 82.24,107.3 81.17,106.08 78.95,108.3 "/>
<g>
	<g>
		<path class="st3" d="M183.36,110.92c-0.17-0.79,0.6-1.19,1.39-0.98c0.79,0.21,0.91,0.16,1.13,0.04c0.22-0.12,0.33-0.19,0.59-0.97
			c0.25-0.78,1.02-1.2,1.58-0.63c0.57,0.57,0.33,2.65-1.16,3.46C185.23,112.74,183.53,111.7,183.36,110.92z"/>
	</g>
</g>
<path class="st2" d="M110,146.18c0,0,1.16,9.17,10.54,11.76l-0.18-3.44c0,0-3.69-0.32-6.85-3.54c-3.15-3.22-3.05-5.14-3.05-5.14
	L110,146.18z"/>
<path class="st2" d="M84.43,146.56c0,0-0.74,9.91-12.41,11.38l0.18-3.44c0,0,4.65,0.47,7.8-2.75c3.15-3.22,3.97-5.55,3.97-5.55
	L84.43,146.56z"/>
<path class="st3" d="M87.83,81.56l-0.03,0.12c0.17,1.62,0.54,2.9,0.54,2.9l0.95,0.19l0.14-0.02v-1.82c0.17-0.11,0.37-0.32,0.57-0.58
	C88.64,82.81,87.83,81.56,87.83,81.56z"/>
<path class="st3" d="M100.86,80.97c0,0,3.94,1.27,5.47,0.39l-0.26,3.22l-1.04,0.22v-0.7L100.86,80.97z"/>
<path class="st3" d="M189.51,89.85c-1.78-0.77-4.9-2.48-8.21-1.94c2.63,0.48,6.65,1.66,7.04,4.49c0.58,4.23-6.54,5.04-9.58,3.92
	l8.22,6.22l2.85,2.65c0,0-0.2,4.43-0.31,6.62c-0.08,1.69-2.23,3.73-5.32,4.56c2.21-0.04,5.18-0.49,6.33-1.6
	c1.43-1.39,1.09-12.8,1.09-12.8l0.65,0.08l0.3-0.74c0,0,0.63-3.29,0.41-4.7C192.77,95.18,192.19,91,189.51,89.85z"/>
<polygon class="st3" points="182.26,129.15 184.71,133.65 183.89,136.31 184.47,139.42 186.45,139.32 185.52,136.23 186.56,133.78 
	183.3,126.78 "/>
<g>
	<path d="M178.76,106.89c-1.83,0-3.33-1.88-3.33-4.19c0-2.31,1.49-4.19,3.33-4.19c1.84,0,3.33,1.88,3.33,4.19
		C182.09,105.01,180.6,106.89,178.76,106.89z M178.76,99.05c-1.54,0-2.79,1.64-2.79,3.65c0,2.01,1.25,3.65,2.79,3.65
		s2.79-1.64,2.79-3.65C181.55,100.69,180.3,99.05,178.76,99.05z"/>
</g>
<g>
	<path d="M186.75,107.88c-0.1,0-0.2-0.06-0.25-0.16c-0.06-0.14,0-0.3,0.14-0.35c0.67-0.29,1.26-0.19,1.78-0.1l0.15,0.02
		c0.74,0.12,1.5-0.22,1.86-0.84c0.11-0.34,0.29-4.8,0.27-6.26c0-0.15,0.12-0.27,0.26-0.27c0.15,0,0.27,0.12,0.27,0.26
		c0.01,0.82-0.12,6.16-0.35,6.54c-0.48,0.81-1.45,1.25-2.41,1.1l-0.15-0.03c-0.49-0.08-0.95-0.16-1.48,0.06
		C186.82,107.88,186.79,107.88,186.75,107.88z"/>
</g>
<g>
	<g>
		<g>
			<path d="M83.44,113.06c-0.07,0-0.14-0.03-0.19-0.08l-3.35-3.35c-0.05-0.05-0.08-0.12-0.08-0.19c0-0.07,0.03-0.14,0.08-0.19
				l2.35-2.35c0.05-0.05,0.14-0.09,0.19-0.08c0.07,0,0.14,0.03,0.19,0.08l3.41,3.62c0.1,0.11,0.1,0.28-0.01,0.38
				c-0.11,0.1-0.28,0.1-0.38-0.01l-3.22-3.42l-1.96,1.96l3.16,3.16c0.1,0.11,0.1,0.28,0,0.38
				C83.58,113.04,83.51,113.06,83.44,113.06z"/>
		</g>
		<g>
			<path d="M80.09,109.71c-0.07,0-0.14-0.03-0.19-0.08l-1.14-1.15c-0.05-0.05-0.08-0.12-0.08-0.19c0-0.07,0.03-0.14,0.08-0.19
				l2.35-2.35c0.11-0.1,0.28-0.1,0.38,0l1.14,1.15c0.1,0.11,0.1,0.28,0,0.38c-0.11,0.1-0.28,0.1-0.38,0l-0.95-0.96l-1.97,1.97
				l0.96,0.96c0.1,0.11,0.1,0.28,0,0.38C80.23,109.69,80.16,109.71,80.09,109.71z"/>
		</g>
	</g>
	<g>
		<path d="M87.69,110.99c-0.05,0-0.09-0.01-0.13-0.04c-1.18-0.68-2.37-0.69-2.38-0.69c-0.15,0-0.27-0.12-0.27-0.27
			c0-0.15,0.12-0.27,0.27-0.27c0.05,0,1.35,0.01,2.65,0.76c0.13,0.07,0.17,0.24,0.1,0.37C87.87,110.94,87.78,110.99,87.69,110.99z"
			/>
	</g>
</g>
<g>
	<path d="M207.98,177.11h-49.12c-2,0-3.62-1.62-3.62-3.62v-30.73c0-2,1.62-3.62,3.62-3.62h49.12c2,0,3.62,1.62,3.62,3.62v30.73
		C211.6,175.49,209.98,177.11,207.98,177.11z M158.86,139.68c-1.7,0-3.08,1.38-3.08,3.08v30.73c0,1.7,1.38,3.08,3.08,3.08h49.12
		c1.7,0,3.08-1.38,3.08-3.08v-30.73c0-1.7-1.38-3.08-3.08-3.08H158.86z"/>
</g>
<g>
	<path d="M183.49,162.58c-2.32,0-4.21-1.89-4.21-4.21c0-2.32,1.89-4.21,4.21-4.21s4.21,1.89,4.21,4.21
		C187.69,160.69,185.81,162.58,183.49,162.58z M183.49,154.7c-2.02,0-3.67,1.65-3.67,3.67c0,2.02,1.65,3.67,3.67,3.67
		c2.02,0,3.67-1.65,3.67-3.67C187.16,156.35,185.51,154.7,183.49,154.7z"/>
</g>
<g>
	<path d="M211.93,177.11c-0.15,0-0.27-0.12-0.27-0.27c0-0.15,0.12-0.27,0.27-0.27c4.63,0,7.74-2.07,9.25-6.15
		c4.29-11.56-5.77-36.72-10.68-40.94c-5.87-5.04-11.34-5.9-16.17-6.65c-0.42-0.07-0.84-0.13-1.25-0.2
		c-0.15-0.02-0.25-0.16-0.22-0.31c0.02-0.15,0.16-0.24,0.31-0.22c0.41,0.07,0.83,0.13,1.25,0.2c4.9,0.76,10.45,1.63,16.43,6.77
		c5.12,4.4,15.28,29.52,10.83,41.53C220.09,174.92,216.81,177.11,211.93,177.11z"/>
</g>
<g>
	<path d="M154.68,177.11c-4.83,0-8.08-2.18-9.67-6.48c-4.47-12.04,5.64-37.17,10.75-41.56c5.98-5.14,11.54-6.01,16.43-6.77
		c0.42-0.07,0.84-0.13,1.25-0.2c0.15-0.02,0.29,0.08,0.31,0.22c0.02,0.15-0.08,0.28-0.22,0.31c-0.41,0.07-0.83,0.13-1.25,0.2
		c-4.83,0.75-10.3,1.6-16.17,6.65c-4.89,4.21-14.89,29.37-10.59,40.96c1.51,4.06,4.59,6.13,9.17,6.13c0.15,0,0.27,0.12,0.27,0.27
		C154.94,176.99,154.82,177.11,154.68,177.11z"/>
</g>
<g>
	<path d="M176.84,139.68c-0.13,0-0.24-0.09-0.26-0.22l-3.37-17.03c-0.02-0.09,0.01-0.19,0.08-0.25l3.9-3.49
		c0.06-0.05,0.13-0.07,0.21-0.07c0.08,0.01,0.14,0.05,0.19,0.11l5.76,7.65l5.46-7.65c0.04-0.06,0.11-0.1,0.19-0.11
		c0.07-0.01,0.15,0.01,0.21,0.06l4.12,3.49c0.07,0.06,0.11,0.16,0.09,0.26l-3.26,17.03c-0.03,0.15-0.16,0.25-0.31,0.21
		c-0.15-0.03-0.24-0.17-0.21-0.31l3.23-16.88l-3.78-3.2l-5.5,7.71c-0.05,0.07-0.13,0.11-0.22,0.11c-0.09,0-0.17-0.04-0.22-0.11
		l-5.8-7.71l-3.57,3.19l3.34,16.88c0.03,0.15-0.07,0.29-0.21,0.32C176.87,139.68,176.85,139.68,176.84,139.68z"/>
</g>
<g>
	<path d="M177.47,139.68c-0.04,0-0.08-0.01-0.11-0.03c-0.13-0.06-0.19-0.22-0.13-0.36l5.87-12.57c0.04-0.09,0.14-0.16,0.24-0.16
		c0.1,0,0.2,0.06,0.24,0.16l5.83,12.57c0.06,0.13,0,0.29-0.13,0.36c-0.14,0.06-0.29,0-0.36-0.13l-5.59-12.05l-5.63,12.05
		C177.67,139.62,177.57,139.68,177.47,139.68z"/>
</g>
<g>
	<path d="M181.48,136.59c-0.11,0-0.21-0.06-0.25-0.17l-1.21-2.9c-0.06-0.14,0.01-0.29,0.14-0.35c0.14-0.06,0.29,0.01,0.35,0.14
		l1.14,2.74l3.68-0.01l0.98-2.36c0.06-0.14,0.22-0.2,0.35-0.15c0.14,0.06,0.2,0.21,0.15,0.35l-1.04,2.53
		c-0.04,0.1-0.14,0.17-0.25,0.17L181.48,136.59C181.48,136.59,181.48,136.59,181.48,136.59z"/>
</g>
<g>
	<path d="M180.74,139.68c-0.02,0-0.04,0-0.06-0.01c-0.14-0.04-0.23-0.18-0.2-0.33l0.75-3.09c0.04-0.14,0.18-0.23,0.33-0.2
		c0.14,0.04,0.23,0.18,0.2,0.33l-0.75,3.09C180.97,139.59,180.86,139.68,180.74,139.68z"/>
</g>
<g>
	<path d="M186.45,139.68c-0.12,0-0.22-0.08-0.26-0.19l-0.93-3.1c-0.04-0.14,0.04-0.29,0.18-0.33c0.14-0.04,0.29,0.04,0.33,0.18
		l0.93,3.1c0.04,0.14-0.04,0.29-0.18,0.33C186.5,139.67,186.48,139.68,186.45,139.68z"/>
</g>
<g>
	<g>
		<path d="M225.96,158.13c-0.03,0-0.05,0-0.08,0c-1.12-0.02-2.24-0.04-3.36-0.04c-0.15,0-0.27-0.12-0.27-0.27
			c0-0.15,0.12-0.27,0.27-0.27c1.12,0,2.25,0.02,3.37,0.04c0.75-0.01,1-0.19,1.24-0.93c0.89-2.78,1.77-5.31,2.69-7.72
			c0.21-0.56,0.8-1.15,1.43-1.44c2.24-1.05,4.57-2.05,7.1-3.08c0.49-0.2,1.29-0.29,1.88-0.03c2.09,0.93,4.13,1.9,6.28,2.92
			l1.95,0.92l1.41-1.42c1.69-1.7,3.43-3.46,5.1-5.23c0.18-0.19,0.22-0.84,0.08-1.16c-0.58-1.31-1.21-2.63-1.82-3.9
			c-0.55-1.16-1.11-2.32-1.64-3.49c-0.24-0.54-0.29-1.27-0.12-1.77c0.92-2.64,1.81-5,2.72-7.24c0.25-0.61,0.85-1.21,1.42-1.45
			c2.08-0.84,4.32-1.67,7.27-2.69c0.64-0.22,0.83-0.5,0.82-1.19c-0.05-2.95-0.05-5.63,0-8.19c0.01-0.72-0.2-1.02-0.93-1.27
			c-1.99-0.68-4.59-1.6-7.13-2.65c-0.59-0.24-1.2-0.87-1.48-1.54c-0.86-1.99-1.73-4.19-2.73-6.93c-0.21-0.56-0.2-1.28,0.01-1.75
			c0.56-1.25,1.15-2.48,1.74-3.72c0.61-1.29,1.25-2.62,1.84-3.94c0.13-0.29,0.05-0.93-0.14-1.13c-1.09-1.17-2.24-2.33-3.35-3.45
			c-0.86-0.87-1.71-1.73-2.56-2.61c-0.43-0.45-0.72-0.49-1.29-0.21c-2.73,1.36-5.15,2.5-7.39,3.5c-0.56,0.25-1.33,0.28-1.88,0.08
			c-2.39-0.86-4.76-1.79-7.07-2.77c-0.54-0.23-1.23-0.75-1.48-1.38c-0.84-2.09-1.67-4.33-2.67-7.27c-0.23-0.67-0.45-0.96-1.16-0.96
			c-0.02,0-0.05,0-0.07,0c-2.61,0.07-5.29,0.07-8.19,0c-0.02,0-0.04,0-0.07,0c-0.67,0-0.95,0.23-1.2,0.94
			c-0.4,1.16-0.82,2.32-1.25,3.47c-0.44,1.2-0.9,2.44-1.31,3.67c-0.29,0.86-0.75,1.3-1.7,1.63c-2.31,0.8-4.53,1.69-6.62,2.65
			c-0.86,0.4-1.52,0.39-2.34-0.02c-1.23-0.62-2.46-1.21-3.7-1.8c-1.17-0.56-2.35-1.12-3.51-1.71c-0.62-0.31-0.93-0.25-1.41,0.25
			c-2.1,2.19-4,4.09-5.8,5.79c-0.56,0.53-0.52,0.89-0.19,1.54c0.07,0.13,0.01,0.29-0.12,0.36c-0.13,0.07-0.29,0.01-0.36-0.12
			c-0.39-0.79-0.48-1.43,0.31-2.17c1.79-1.7,3.68-3.59,5.78-5.77c0.64-0.67,1.21-0.77,2.04-0.36c1.16,0.58,2.33,1.14,3.5,1.7
			c1.24,0.59,2.48,1.19,3.71,1.81c0.68,0.34,1.15,0.35,1.88,0.02c2.1-0.96,4.34-1.86,6.66-2.67c0.78-0.27,1.12-0.6,1.36-1.29
			c0.42-1.24,0.88-2.48,1.32-3.68c0.42-1.15,0.84-2.3,1.24-3.46c0.27-0.8,0.71-1.34,1.78-1.3c2.9,0.06,5.57,0.06,8.17,0
			c0.03,0,0.05,0,0.08,0c1.02,0,1.4,0.51,1.68,1.32c1,2.93,1.82,5.17,2.66,7.25c0.19,0.46,0.74,0.89,1.19,1.08
			c2.3,0.97,4.67,1.9,7.04,2.76c0.42,0.15,1.05,0.12,1.48-0.07c2.23-1,4.64-2.14,7.37-3.5c0.79-0.39,1.33-0.3,1.92,0.31
			c0.84,0.88,1.7,1.74,2.55,2.61c1.11,1.12,2.26,2.29,3.36,3.46c0.37,0.39,0.44,1.27,0.24,1.72c-0.59,1.33-1.23,2.66-1.84,3.95
			c-0.59,1.23-1.17,2.46-1.73,3.71c-0.15,0.34-0.15,0.91,0.01,1.34c1,2.73,1.87,4.92,2.72,6.9c0.23,0.54,0.73,1.07,1.19,1.26
			c2.53,1.04,5.12,1.95,7.1,2.64c0.95,0.33,1.31,0.83,1.29,1.79c-0.05,2.56-0.05,5.23,0,8.17c0.02,0.93-0.32,1.41-1.18,1.71
			c-2.94,1.02-5.17,1.84-7.24,2.68c-0.45,0.18-0.93,0.68-1.13,1.15c-0.91,2.22-1.8,4.58-2.71,7.21c-0.13,0.38-0.09,0.95,0.1,1.37
			c0.53,1.17,1.08,2.32,1.63,3.48c0.61,1.28,1.24,2.6,1.83,3.92c0.21,0.48,0.18,1.36-0.18,1.75c-1.67,1.77-3.41,3.53-5.1,5.24
			l-1.54,1.56c-0.08,0.08-0.2,0.1-0.31,0.05l-2.12-1c-2.15-1.02-4.18-1.98-6.27-2.91c-0.37-0.17-1-0.15-1.46,0.04
			c-2.52,1.02-4.83,2.02-7.07,3.07c-0.5,0.24-0.99,0.72-1.15,1.15c-0.92,2.41-1.79,4.92-2.68,7.7
			C227.33,157.77,226.87,158.13,225.96,158.13z"/>
	</g>
	<g>
		<path d="M221.8,130.79c-4.34,0-8.41-1.68-11.46-4.74c-3.05-3.06-4.73-7.14-4.73-11.5c0-4.36,1.68-8.42,4.72-11.46
			c3.06-3.05,7.18-4.73,11.6-4.73c6.76,0.01,12.83,4.3,15.14,10.68c0.05,0.14-0.02,0.29-0.16,0.34c-0.14,0.05-0.29-0.02-0.34-0.16
			c-2.23-6.16-8.1-10.31-14.6-10.32c-4.31,0-8.3,1.62-11.26,4.58c-2.94,2.93-4.56,6.86-4.56,11.07c0,4.21,1.62,8.16,4.57,11.12
			c2.95,2.96,6.88,4.58,11.08,4.58c4.14,0,8.04-1.58,10.99-4.45c0.11-0.1,0.28-0.1,0.38,0c0.1,0.11,0.1,0.28,0,0.38
			C230.12,129.16,226.08,130.79,221.8,130.79C221.8,130.79,221.8,130.79,221.8,130.79z"/>
	</g>
</g>
<g>
	<g>
		<path d="M185.05,86.6c-0.31,0-0.67-0.07-1.11-0.17c-1.43-0.35-3.02-0.44-4.72-0.27c-1.1,0.11-1.75-0.03-2.01-1.04
			c-0.63-2.43-1.18-4.4-1.72-6.19c-0.09-0.3-0.4-0.67-0.71-0.84c-0.76-0.42-1.53-0.81-2.3-1.21c-0.96-0.49-1.94-1-2.89-1.54
			c-0.54-0.31-0.89-0.34-1.39-0.13c-1.08,0.45-2.05,0.84-3.07,1.24l-1.21,0.48c-0.37,0.15-0.75,0.27-1.15,0.36
			c-0.85,0.19-1.74-0.09-2.33-0.72l-1.23-1.33c-0.93-1.07-1.64-1.86-2.56-2.85c-0.52-0.56-0.57-1.07-0.17-1.76
			c0.47-0.82,0.93-1.65,1.39-2.48c0.49-0.89,0.98-1.77,1.49-2.65c0.32-0.55,0.33-0.97,0.06-1.6c-0.42-0.97-0.78-1.98-1.12-2.96
			c-0.28-0.77-0.56-1.56-0.87-2.33c-0.15-0.37-0.47-0.84-0.83-1.01c-2.06-0.94-4.15-1.78-5.92-2.48c-0.94-0.37-1-0.98-0.79-2.04
			c0.34-1.71,0.45-3.47,0.32-5.25c-0.08-1.08,0.23-1.57,1.14-1.8c1.96-0.5,4.06-1.06,6.08-1.68c0.34-0.1,0.74-0.46,0.98-0.87
			c0.97-1.66,1.91-3.39,2.8-5.14c0.17-0.34,0.22-0.85,0.11-1.16c-0.74-2.04-1.57-4.06-2.28-5.77c-0.31-0.75-0.3-1.32,0.69-1.97
			c1.53-1.01,2.89-2.2,4.03-3.52c0.67-0.78,1.2-1.1,2.06-0.6c0.87,0.5,1.74,0.99,2.62,1.48c0.93,0.52,1.87,1.04,2.79,1.58
			c0.59,0.35,0.99,0.32,1.83-0.09c1.27-0.63,2.73-1.11,4.35-1.43c1-0.2,1.32-0.4,1.57-1.01c0.39-0.94,0.8-1.87,1.21-2.79
			c0.38-0.86,0.76-1.73,1.12-2.6c0.38-0.91,0.94-1.13,2.13-0.85c1.73,0.41,3.4,0.52,4.96,0.33c1.3-0.16,1.79,0.12,2.07,1.11
			c0.63,2.31,1.15,4.07,1.7,5.73c0.1,0.3,0.46,0.67,0.83,0.86c1.73,0.87,3.51,1.7,5.3,2.47c0.28,0.12,0.79,0.14,1.07,0.03
			c1.77-0.66,3.7-1.43,5.89-2.35c0.65-0.27,1.09-0.17,1.54,0.35c0.61,0.72,1.23,1.43,1.85,2.14c0.8,0.92,1.63,1.87,2.42,2.83
			c0.26,0.32,0.31,1.02,0.11,1.41c-0.52,1-1.07,1.98-1.62,2.97c-0.51,0.92-1.03,1.84-1.52,2.78c-0.13,0.24-0.15,0.67-0.05,0.99
			c0.64,2.16,1.2,3.89,1.76,5.46c0.15,0.41,0.5,0.84,0.83,1c1.88,0.91,3.76,1.72,5.36,2.38c0.74,0.31,1.01,0.74,0.95,1.51
			c-0.17,1.99-0.3,4.06-0.4,6.32c-0.03,0.62-0.45,1.14-1.04,1.31c-1.57,0.44-3.64,1.02-5.73,1.71c-0.32,0.11-0.73,0.46-0.87,0.76
			c-0.82,1.68-1.63,3.47-2.47,5.48c-0.11,0.27-0.11,0.71,0.01,1.02c0.35,0.93,0.72,1.85,1.09,2.76c0.42,1.04,0.83,2.08,1.22,3.12
			c0.15,0.4,0.07,1.11-0.24,1.4c-1.37,1.29-2.81,2.56-4.2,3.79l-1.28,1.13c-0.08,0.08-0.21,0.09-0.31,0.04l-1.59-0.88
			c-1.61-0.89-3.13-1.74-4.7-2.56c-0.26-0.14-0.74-0.15-1.08-0.04c-2.01,0.67-3.84,1.33-5.61,2.02c-0.38,0.15-0.77,0.49-0.91,0.8
			c-0.83,1.82-1.63,3.72-2.45,5.81C186.04,86.35,185.66,86.6,185.05,86.6z M180.84,85.54c1.14,0,2.22,0.12,3.23,0.37
			c1.31,0.32,1.5,0.15,1.75-0.47c0.82-2.1,1.63-4.01,2.46-5.84c0.2-0.43,0.69-0.88,1.21-1.08c1.78-0.7,3.62-1.36,5.64-2.03
			c0.4-0.13,1.04-0.17,1.5,0.07c1.57,0.82,3.1,1.67,4.71,2.56l1.42,0.79l1.13-1.01c1.39-1.23,2.82-2.5,4.19-3.78
			c0.12-0.11,0.2-0.57,0.1-0.82c-0.39-1.04-0.8-2.08-1.22-3.11c-0.37-0.92-0.74-1.85-1.09-2.78c-0.17-0.45-0.17-1.02,0-1.42
			c0.85-2.02,1.66-3.82,2.48-5.5c0.21-0.43,0.73-0.89,1.18-1.04c2.09-0.7,4.17-1.29,5.75-1.72c0.37-0.1,0.63-0.43,0.65-0.81
			c0.1-2.27,0.24-4.35,0.41-6.34c0.04-0.53-0.1-0.75-0.62-0.97c-1.6-0.67-3.5-1.48-5.38-2.4c-0.46-0.22-0.91-0.76-1.1-1.3
			c-0.57-1.58-1.13-3.32-1.77-5.49c-0.14-0.46-0.1-1.03,0.1-1.39c0.49-0.94,1.01-1.86,1.52-2.79c0.55-0.98,1.09-1.96,1.61-2.96
			c0.1-0.2,0.08-0.67-0.05-0.82c-0.79-0.95-1.61-1.9-2.41-2.82c-0.62-0.71-1.24-1.43-1.85-2.15c-0.29-0.35-0.48-0.39-0.92-0.2
			c-2.2,0.92-4.13,1.69-5.91,2.35c-0.42,0.16-1.07,0.14-1.48-0.04c-1.8-0.78-3.59-1.62-5.33-2.49c-0.41-0.21-0.94-0.66-1.1-1.17
			c-0.55-1.66-1.08-3.44-1.71-5.75c-0.16-0.59-0.29-0.86-1.48-0.72c-1.62,0.2-3.36,0.08-5.15-0.34c-1.07-0.25-1.28-0.03-1.51,0.53
			c-0.36,0.88-0.75,1.74-1.13,2.61c-0.41,0.92-0.82,1.85-1.2,2.78c-0.36,0.88-0.92,1.13-1.97,1.33c-1.57,0.31-2.99,0.77-4.22,1.38
			c-1,0.5-1.59,0.51-2.34,0.08c-0.92-0.54-1.85-1.06-2.78-1.58c-0.88-0.49-1.76-0.98-2.62-1.49c-0.5-0.29-0.74-0.26-1.38,0.48
			c-1.17,1.36-2.56,2.57-4.14,3.62c-0.74,0.49-0.73,0.75-0.49,1.32c0.71,1.71,1.54,3.74,2.29,5.79c0.16,0.44,0.1,1.11-0.14,1.58
			c-0.89,1.76-1.84,3.5-2.81,5.17c-0.25,0.43-0.75,0.94-1.28,1.11c-2.04,0.63-4.14,1.18-6.11,1.69c-0.57,0.15-0.81,0.31-0.74,1.24
			c0.14,1.83,0.03,3.64-0.32,5.4c-0.21,1.02-0.09,1.22,0.46,1.43c1.78,0.7,3.88,1.54,5.95,2.49c0.53,0.24,0.93,0.85,1.11,1.3
			c0.31,0.78,0.6,1.58,0.87,2.35c0.35,0.97,0.71,1.97,1.11,2.93c0.34,0.8,0.32,1.38-0.09,2.08c-0.51,0.87-0.99,1.76-1.48,2.64
			c-0.46,0.83-0.92,1.67-1.4,2.49c-0.28,0.49-0.26,0.73,0.1,1.13c0.9,0.98,1.64,1.79,2.57,2.86l1.23,1.32
			c0.46,0.5,1.16,0.71,1.82,0.56c0.36-0.08,0.72-0.19,1.07-0.33l1.21-0.48c1.02-0.4,1.98-0.79,3.06-1.24
			c0.66-0.28,1.18-0.23,1.87,0.16c0.94,0.54,1.92,1.04,2.87,1.53c0.77,0.4,1.55,0.8,2.31,1.22c0.44,0.24,0.83,0.72,0.97,1.15
			c0.55,1.8,1.09,3.77,1.73,6.21c0.14,0.54,0.31,0.75,1.44,0.64C179.74,85.57,180.3,85.54,180.84,85.54z"/>
	</g>
	<g>
		<path d="M183.84,65.29c-0.27,0-0.54-0.01-0.81-0.03c-3.38-0.21-6.45-1.72-8.67-4.25c-2.22-2.52-3.32-5.78-3.1-9.16
			c0.22-3.38,1.72-6.46,4.23-8.66c2.54-2.23,5.83-3.33,9.27-3.1c6.89,0.45,12.12,6.46,11.68,13.4
			C196.01,60.16,190.43,65.29,183.84,65.29z M183.06,64.73c6.68,0.42,12.41-4.64,12.83-11.27c0.43-6.64-4.58-12.39-11.17-12.83
			c-3.3-0.22-6.45,0.84-8.88,2.97c-2.4,2.11-3.84,5.05-4.05,8.29c-0.21,3.24,0.85,6.35,2.97,8.77
			C176.89,63.08,179.83,64.53,183.06,64.73L183.06,64.73z"/>
	</g>
</g>
<g>
	<path d="M118.22,105.11c-0.07,0-0.14-0.03-0.19-0.08c-0.1-0.11-0.1-0.28,0-0.38l16.95-16.54c2.19-2.19,2.19-5.75,0-7.95l-2.27-2.27
		c-1.06-1.06-2.47-1.65-3.98-1.65c-1.5,0-2.91,0.58-3.98,1.65l-20.39,19.78c-0.11,0.1-0.28,0.1-0.38-0.01
		c-0.1-0.11-0.1-0.28,0.01-0.38l20.38-19.77c1.16-1.16,2.71-1.8,4.35-1.8c1.65,0,3.19,0.64,4.36,1.8l2.27,2.27
		c2.4,2.4,2.4,6.31,0,8.71l-16.96,16.54C118.35,105.08,118.28,105.11,118.22,105.11z"/>
</g>
<g>
	<path d="M76.08,105.31c-0.07,0-0.14-0.03-0.19-0.08c-1.16-1.16-1.81-2.71-1.81-4.35c0-1.65,0.64-3.19,1.81-4.36l2.27-2.27
		c1.16-1.16,2.71-1.81,4.36-1.81c1.65,0,3.19,0.64,4.36,1.81l3.45,3.46c0.1,0.11,0.1,0.28,0,0.38c-0.11,0.1-0.28,0.1-0.38,0
		l-3.45-3.46c-1.06-1.06-2.47-1.65-3.98-1.65c-1.5,0-2.91,0.58-3.97,1.65l-2.27,2.27c-1.06,1.06-1.65,2.48-1.65,3.98
		c0,1.5,0.59,2.91,1.65,3.97c0.11,0.11,0.11,0.28,0,0.38C76.22,105.28,76.15,105.31,76.08,105.31z"/>
</g>
<g>
	<path d="M187.83,106.89c-1.83,0-3.33-1.88-3.33-4.19c0-2.31,1.49-4.19,3.33-4.19c1.84,0,3.33,1.88,3.33,4.19
		C191.15,105.01,189.66,106.89,187.83,106.89z M187.83,99.05c-1.54,0-2.79,1.64-2.79,3.65c0,2.01,1.25,3.65,2.79,3.65
		s2.79-1.64,2.79-3.65C190.62,100.69,189.37,99.05,187.83,99.05z"/>
</g>
<g>
	<path d="M184.66,102.96c-0.07,0-0.13-0.02-0.18-0.07c-0.47-0.45-0.94-0.66-1.39-0.63c-0.6,0.04-0.99,0.51-0.99,0.52
		c-0.09,0.11-0.26,0.13-0.38,0.04c-0.12-0.09-0.14-0.26-0.04-0.38c0.02-0.03,0.53-0.66,1.37-0.72c0.62-0.04,1.21,0.22,1.8,0.77
		c0.11,0.1,0.11,0.27,0.01,0.38C184.8,102.94,184.73,102.96,184.66,102.96z"/>
</g>
<g>
	<g>
		<g>
			<path d="M38,71.2h-1.98c-2.44,0-4.42-1.98-4.42-4.41v-5.42c0-0.11,0-0.22,0.01-0.33c0.01-0.08,0.05-0.16,0.12-0.2
				c0.07-0.04,0.15-0.06,0.23-0.03c3.24,1.05,6.84,1.05,10.09,0.01c0.08-0.03,0.16-0.01,0.23,0.03c0.07,0.04,0.11,0.12,0.12,0.2
				c0.01,0.1,0.01,0.21,0.01,0.31v5.42C42.42,69.22,40.44,71.2,38,71.2z M32.14,61.42v5.36c0,2.14,1.74,3.88,3.88,3.88H38
				c2.14,0,3.88-1.74,3.88-3.88v-5.35C38.73,62.37,35.28,62.36,32.14,61.42z"/>
		</g>
		<g>
			<path d="M37.03,62.13c-1.79,0-3.55-0.28-5.23-0.82c-7.07-2.27-11.82-8.79-11.82-16.22c0-9.4,7.65-17.04,17.05-17.04
				c9.4,0,17.04,7.65,17.04,17.04c0,7.45-4.76,13.97-11.85,16.24C40.55,61.86,38.8,62.13,37.03,62.13z M37.03,28.58
				c-9.1,0-16.51,7.4-16.51,16.51c0,7.2,4.6,13.51,11.45,15.71c3.24,1.05,6.84,1.05,10.09,0.01c6.87-2.19,11.48-8.51,11.48-15.72
				C53.53,35.99,46.13,28.58,37.03,28.58z"/>
		</g>
		<g>
			<path d="M26.93,52.31c-0.18,0-0.36,0-0.52-0.01c-0.15-0.01-0.26-0.13-0.26-0.28c0.01-0.15,0.12-0.27,0.28-0.26
				c1,0.04,2.44,0,3.39-0.82c0.23-0.2,0.42-0.42,0.59-0.66c-0.44-0.31-0.82-0.66-1.13-1.07c-0.79-1.02-1.14-2.35-0.97-3.66
				c0.06-0.45,0.47-2.21,1.37-2.7c0.29-0.16,0.61-0.17,0.92-0.02c0.6,0.28,0.84,1.13,0.99,1.69l0.04,0.13
				c0.2,0.69,0.29,1.4,0.29,2.13c0,0.68-0.1,2.09-0.77,3.33c1.32,0.74,3.17,1.07,5.6,1.01c1.38-0.04,2.52-0.23,3.5-0.6
				c1.23-0.46,2.21-1.23,2.84-2.19c-0.09-0.04-0.17-0.09-0.26-0.14c-0.99-0.55-1.64-1.43-1.76-2.36c-0.07-0.53,0.04-1.11,0.3-1.67
				c0.2-0.42,0.56-0.96,1.16-1.15c0.39-0.12,0.75-0.07,1.04,0.15c0.8,0.6,0.84,2.24,0.84,2.56c0,0.84-0.2,1.64-0.56,2.36
				c1.66,0.66,3.66,0.72,5.59,0.72c0.15,0,0.27,0.12,0.27,0.27c0,0.15-0.12,0.27-0.27,0.27c-2.01,0-4.1-0.07-5.86-0.79
				c-0.69,1.08-1.77,1.95-3.15,2.46c-1.04,0.39-2.24,0.6-3.68,0.64c-2.54,0.07-4.49-0.29-5.9-1.09c-0.19,0.28-0.42,0.54-0.69,0.78
				C29.25,52.15,27.97,52.31,26.93,52.31z M30.16,43.26c-0.07,0-0.15,0.02-0.22,0.06c-0.56,0.31-1,1.64-1.09,2.3
				c-0.16,1.16,0.16,2.35,0.86,3.25c0.27,0.36,0.6,0.67,0.99,0.94c0.6-1.13,0.68-2.42,0.69-3.05c0.01-0.68-0.08-1.34-0.27-1.98
				l-0.04-0.13c-0.13-0.46-0.32-1.17-0.7-1.35C30.3,43.27,30.23,43.26,30.16,43.26z M42.95,43.48c-0.07,0-0.15,0.01-0.24,0.04
				c-0.42,0.13-0.69,0.54-0.84,0.86c-0.22,0.47-0.31,0.94-0.26,1.37c0.09,0.76,0.65,1.49,1.49,1.96c0.09,0.05,0.18,0.1,0.27,0.14
				c0.34-0.66,0.52-1.38,0.52-2.14c0-0.8-0.19-1.81-0.62-2.13C43.17,43.51,43.07,43.48,42.95,43.48z"/>
		</g>
	</g>
	<g>
		<path d="M28.23,26.15c-0.11,0-0.21-0.07-0.25-0.17L20.94,7.2c-0.05-0.14,0.02-0.29,0.16-0.35c0.14-0.05,0.29,0.02,0.35,0.16
			l7.04,18.78c0.05,0.14-0.02,0.29-0.16,0.35C28.29,26.15,28.26,26.15,28.23,26.15z"/>
	</g>
	<g>
		<path d="M17.18,68.55c-0.07,0-0.14-0.03-0.19-0.08c-0.11-0.1-0.11-0.27,0-0.38l5.39-5.45c0.1-0.11,0.27-0.11,0.38,0
			c0.11,0.1,0.11,0.27,0,0.38l-5.39,5.45C17.32,68.52,17.25,68.55,17.18,68.55z"/>
	</g>
	<g>
		<path d="M61.45,72.73c-0.06,0-0.12-0.02-0.17-0.06l-11.37-9.63c-0.11-0.1-0.13-0.27-0.03-0.38c0.1-0.11,0.27-0.13,0.38-0.03
			l11.37,9.63c0.11,0.1,0.13,0.27,0.03,0.38C61.6,72.69,61.52,72.73,61.45,72.73z"/>
	</g>
	<g>
		<path d="M56.82,37.54c-0.09,0-0.18-0.05-0.23-0.14c-0.07-0.13-0.03-0.29,0.1-0.37l12.73-7.3c0.13-0.07,0.29-0.03,0.37,0.1
			c0.07,0.13,0.03,0.29-0.1,0.37l-12.73,7.3C56.91,37.53,56.86,37.54,56.82,37.54z"/>
	</g>
	<g>
		<path d="M12.09,49.89H3.4c-0.15,0-0.27-0.12-0.27-0.27c0-0.15,0.12-0.27,0.27-0.27h8.69c0.15,0,0.27,0.12,0.27,0.27
			C12.36,49.77,12.24,49.89,12.09,49.89z"/>
	</g>
</g>
<g>
	<path d="M89.87,110.92c-0.13,0-0.24-0.09-0.26-0.22l-1.96-10.21c-0.02-0.09,0.01-0.18,0.07-0.24l3.96-3.99
		c0.06-0.06,0.14-0.09,0.23-0.08c0.08,0.01,0.16,0.06,0.2,0.13l5.13,8.95l5.17-9.05c0.04-0.07,0.12-0.12,0.2-0.13
		c0.08-0.01,0.17,0.02,0.23,0.08l3.73,3.79c0.06,0.06,0.09,0.15,0.07,0.23l-1.82,10.49c-0.03,0.15-0.16,0.25-0.31,0.22
		c-0.15-0.03-0.24-0.16-0.22-0.31l1.8-10.35l-3.39-3.43l-5.23,9.15c-0.05,0.08-0.14,0.13-0.23,0.13c-0.1,0-0.19-0.05-0.23-0.13
		l-5.19-9.05l-3.61,3.64l1.93,10.07c0.03,0.15-0.07,0.29-0.21,0.31C89.9,110.92,89.89,110.92,89.87,110.92z"/>
</g>
<g>
	<path d="M100.6,110.89c-0.08,0-0.17-0.04-0.22-0.12l-3.13-4.5l-3.12,4.5c-0.08,0.12-0.25,0.15-0.37,0.07
		c-0.12-0.08-0.15-0.25-0.07-0.37l3.34-4.82c0.05-0.07,0.13-0.12,0.22-0.12c0.09,0,0.17,0.04,0.22,0.12l3.36,4.82
		c0.08,0.12,0.05,0.29-0.07,0.37C100.71,110.88,100.66,110.89,100.6,110.89z"/>
</g>
<path d="M93.46,84.81c0.21-0.03,0.36,0.06,0.42,0.83c0.07,0.86-0.15,1.01-0.35,1.01c-0.19-0.01-0.39-0.27-0.38-0.89
	C93.16,85.14,93.18,84.85,93.46,84.81z"/>
<path d="M100.43,84.81c0.21-0.03,0.36,0.06,0.42,0.83c0.07,0.86-0.15,1.01-0.35,1.01c-0.19-0.01-0.39-0.27-0.38-0.89
	C100.13,85.14,100.15,84.85,100.43,84.81z"/>
<g>
	<path d="M88.22,90.45c-0.06,0-0.13,0-0.19-0.01c-0.82-0.05-1.57-0.42-2.11-1.03c-0.54-0.62-0.81-1.4-0.76-2.22
		c0.11-1.69,1.58-2.98,3.26-2.87c0.33,0.02,0.64,0.09,0.95,0.21c0.14,0.06,0.21,0.21,0.15,0.35c-0.06,0.14-0.22,0.2-0.35,0.15
		c-0.25-0.1-0.51-0.16-0.78-0.17c-1.39-0.1-2.6,0.97-2.69,2.37c-0.04,0.68,0.18,1.33,0.63,1.83c0.45,0.51,1.07,0.81,1.74,0.85
		c0.46,0.03,0.92-0.07,1.32-0.28c0.13-0.07,0.29-0.02,0.36,0.11c0.07,0.13,0.02,0.29-0.11,0.36C89.19,90.33,88.71,90.45,88.22,90.45
		z"/>
</g>
<g>
	<path d="M87.6,89.07c-0.08,0-0.16-0.04-0.21-0.1c-0.09-0.12-0.07-0.29,0.05-0.38l1.61-1.24l-1.8-1.33
		c-0.12-0.09-0.14-0.26-0.06-0.38c0.09-0.12,0.25-0.14,0.38-0.06l2.09,1.54c0.07,0.05,0.11,0.13,0.11,0.21
		c0,0.08-0.04,0.16-0.1,0.22l-1.89,1.46C87.71,89.05,87.66,89.07,87.6,89.07z"/>
</g>
<g>
	<path d="M106.3,90.45c-0.49,0-0.98-0.12-1.41-0.34c-0.13-0.07-0.18-0.23-0.11-0.36c0.07-0.13,0.23-0.18,0.36-0.11
		c0.41,0.21,0.87,0.31,1.33,0.28c1.39-0.09,2.46-1.29,2.37-2.69c-0.09-1.39-1.29-2.48-2.69-2.37c-0.29,0.02-0.57,0.08-0.83,0.2
		c-0.13,0.06-0.29,0-0.35-0.14c-0.06-0.14,0-0.29,0.14-0.35c0.32-0.14,0.66-0.22,1.01-0.24c1.67-0.1,3.15,1.18,3.26,2.87
		c0.11,1.69-1.18,3.15-2.87,3.26C106.43,90.45,106.37,90.45,106.3,90.45z"/>
</g>
<g>
	<path d="M106.92,89.07c-0.06,0-0.12-0.02-0.16-0.06l-1.89-1.46c-0.07-0.05-0.11-0.13-0.1-0.22c0-0.08,0.04-0.16,0.11-0.21
		l2.09-1.54c0.12-0.09,0.29-0.06,0.38,0.06c0.09,0.12,0.06,0.29-0.06,0.38l-1.8,1.33l1.61,1.24c0.12,0.09,0.14,0.26,0.05,0.38
		C107.08,89.04,107,89.07,106.92,89.07z"/>
</g>
<g>
	<path d="M192.92,107.91c-0.49,0-0.98-0.12-1.41-0.34c-0.13-0.07-0.18-0.23-0.11-0.36c0.07-0.13,0.23-0.18,0.36-0.11
		c0.41,0.21,0.87,0.32,1.33,0.28c1.39-0.09,2.46-1.29,2.37-2.69c-0.04-0.67-0.34-1.29-0.85-1.74c-0.51-0.45-1.15-0.68-1.84-0.63
		c-0.29,0.02-0.57,0.08-0.83,0.2c-0.13,0.06-0.29,0-0.35-0.14c-0.06-0.14,0-0.3,0.14-0.35c0.32-0.14,0.66-0.22,1.01-0.24
		c0.82-0.05,1.61,0.22,2.22,0.76c0.62,0.54,0.98,1.29,1.03,2.11c0.11,1.69-1.18,3.15-2.87,3.26
		C193.05,107.91,192.99,107.91,192.92,107.91z"/>
</g>
<g>
	<path d="M193.54,106.53c-0.06,0-0.12-0.02-0.16-0.06l-1.89-1.46c-0.07-0.05-0.11-0.13-0.1-0.22c0-0.08,0.04-0.16,0.11-0.21
		l2.09-1.54c0.12-0.09,0.29-0.06,0.38,0.06c0.09,0.12,0.06,0.29-0.06,0.38l-1.8,1.33l1.61,1.24c0.12,0.09,0.14,0.26,0.05,0.38
		C193.7,106.5,193.62,106.53,193.54,106.53z"/>
</g>
<g>
	<path d="M173.57,107.91c-0.07,0-0.13,0-0.19-0.01c-0.82-0.05-1.57-0.42-2.11-1.03c-0.54-0.62-0.81-1.4-0.76-2.22
		c0.05-0.82,0.42-1.57,1.03-2.11c0.62-0.54,1.41-0.81,2.22-0.76c0.35,0.02,0.69,0.1,1.01,0.24c0.14,0.06,0.2,0.22,0.14,0.35
		c-0.06,0.14-0.21,0.2-0.35,0.14c-0.26-0.11-0.54-0.18-0.83-0.2c-0.69-0.05-1.33,0.18-1.83,0.63c-0.51,0.45-0.81,1.07-0.85,1.74
		c-0.04,0.68,0.18,1.33,0.63,1.83c0.45,0.51,1.07,0.81,1.74,0.85c0.46,0.03,0.92-0.07,1.32-0.28c0.13-0.07,0.29-0.02,0.36,0.11
		c0.07,0.13,0.02,0.29-0.11,0.36C174.54,107.79,174.06,107.91,173.57,107.91z"/>
</g>
<g>
	<path d="M172.95,106.53c-0.08,0-0.16-0.04-0.21-0.1c-0.09-0.12-0.07-0.29,0.05-0.38l1.61-1.24l-1.8-1.33
		c-0.12-0.09-0.14-0.26-0.06-0.38c0.09-0.12,0.26-0.15,0.38-0.06l2.09,1.54c0.07,0.05,0.11,0.13,0.11,0.21
		c0,0.08-0.04,0.16-0.1,0.22l-1.89,1.46C173.06,106.51,173,106.53,172.95,106.53z"/>
</g>
<g>
	<path d="M97.78,97.53H96.7c-1.35,0-3.28-0.28-4.83-1.6c-1.18-1.01-1.96-2.64-2.39-4.98c-0.28-1.54-0.34-6.42-0.32-8.02
		c0-0.15,0.12-0.26,0.27-0.26c0.15,0,0.27,0.12,0.27,0.27c-0.03,1.72,0.05,6.48,0.31,7.92c0.4,2.21,1.13,3.74,2.21,4.67
		C93.65,96.74,95.44,97,96.7,97h1.08c1.26,0,3.06-0.26,4.48-1.47c1.08-0.93,1.81-2.46,2.21-4.67c0.25-1.38,0.3-4.79,0.27-6.75
		c0-0.15,0.12-0.27,0.26-0.27c0.15,0,0.27,0.12,0.27,0.26c0.03,1.7,0,5.33-0.28,6.85c-0.43,2.34-1.21,3.96-2.39,4.98
		C101.06,97.26,99.13,97.53,97.78,97.53z"/>
</g>
<g>
	<path d="M91.88,96.72c-0.14,0-0.27-0.12-0.27-0.27l0.01-0.87c0-0.15,0.12-0.27,0.27-0.27c0.15-0.01,0.27,0.12,0.27,0.27l-0.01,0.87
		C92.15,96.6,92.03,96.72,91.88,96.72z"/>
</g>
<g>
	<path d="M102.62,96.62c-0.16,0-0.27-0.13-0.27-0.28l0.03-0.77c0-0.14,0.12-0.26,0.27-0.26c0.16,0,0.27,0.13,0.27,0.28l-0.03,0.77
		C102.89,96.5,102.77,96.62,102.62,96.62z"/>
</g>
<g>
	<path d="M106.13,84.85c-0.19-0.03-0.29-0.16-0.27-0.31c0.6-3.82,0.03-6.17-0.6-7.97c-1.33-3.77-6.87-4.6-10.38-3.99
		c-2.65,0.47-4.14,2.61-4.15,2.64c-0.04,0.06-0.1,0.1-0.17,0.11c-0.5,0.11-0.93,0.32-1.28,0.63c-0.02,0.02-1.3,1.13-1.3,3.96
		c0,2.29,0.61,4.57,0.62,4.59c0.04,0.14-0.05,0.29-0.19,0.33c-0.15,0.04-0.29-0.05-0.33-0.19c-0.03-0.1-0.64-2.37-0.64-4.73
		c0.01-3.1,1.43-4.32,1.49-4.37c0.39-0.34,0.87-0.59,1.41-0.72c0.32-0.44,1.84-2.32,4.44-2.78c3.7-0.65,9.55,0.27,10.98,4.34
		c0.65,1.86,1.24,4.3,0.63,8.23C106.37,84.76,106.26,84.85,106.13,84.85z"/>
</g>
<g>
	<path d="M120.79,177.11c-0.15,0-0.27-0.12-0.27-0.27c0-0.17,0-16.66-0.44-22.39c-0.01-0.15,0.1-0.28,0.25-0.29
		c0.15-0.01,0.28,0.1,0.29,0.25c0.44,5.75,0.44,22.27,0.44,22.43C121.06,176.99,120.94,177.11,120.79,177.11z"/>
</g>
<g>
	<path d="M71.79,177.11c-0.15,0-0.27-0.12-0.27-0.27c0-0.17,0-16.68,0.44-22.43c0.01-0.15,0.15-0.26,0.29-0.25
		c0.15,0.01,0.26,0.14,0.25,0.29c-0.44,5.73-0.44,22.23-0.44,22.39C72.06,176.99,71.94,177.11,71.79,177.11z"/>
</g>
<g>
	<path d="M91.6,83.98c-0.03,0-0.06,0-0.09-0.02c-0.14-0.05-0.21-0.21-0.16-0.34c0.48-1.33,2.33-1.71,3.41-1.46
		c0.15,0.03,0.24,0.18,0.2,0.32c-0.03,0.15-0.18,0.23-0.32,0.2c-0.9-0.2-2.43,0.13-2.79,1.12C91.81,83.91,91.71,83.98,91.6,83.98z"
		/>
</g>
<g>
	<path d="M102.41,83.98c-0.11,0-0.21-0.07-0.25-0.18c-0.36-0.99-1.89-1.32-2.79-1.12c-0.14,0.03-0.29-0.06-0.32-0.2
		c-0.03-0.14,0.06-0.29,0.2-0.32c1.09-0.24,2.93,0.14,3.42,1.46c0.05,0.14-0.02,0.29-0.16,0.34
		C102.47,83.98,102.44,83.98,102.41,83.98z"/>
</g>
<g>
	<path d="M121.2,154.78c-4.07,0-8.56-2.53-11.09-8.74c-0.06-0.14,0.01-0.29,0.15-0.35c0.13-0.06,0.29,0.01,0.35,0.15
		c2.98,7.31,8.74,9.31,13.1,8.06c9.41-2.7,6.82-14.64,5.97-18.57l-0.66-3.07c-0.98-4.56-1.99-9.28-3.18-13.85
		c-2.69-10.33-10.15-17.23-19.47-18c-0.15-0.01-0.26-0.14-0.25-0.29c0.01-0.15,0.12-0.26,0.29-0.25c9.55,0.79,17.2,7.84,19.95,18.4
		c1.19,4.58,2.21,9.31,3.19,13.87l0.66,3.06c0.88,4.05,3.55,16.36-6.35,19.2C123.01,154.65,122.11,154.78,121.2,154.78z"/>
</g>
<g>
	<path d="M104.8,128.43c-0.34,0-0.65-0.01-0.94-0.03c-1.65-0.12-2.87-0.59-3.51-1.35c-0.41-0.49-0.59-1.09-0.53-1.77
		c0.14-1.47,1.42-2.11,2.07-2.25c0.15-0.03,0.29,0.06,0.32,0.21c0.03,0.15-0.06,0.29-0.21,0.32c-0.06,0.01-1.51,0.34-1.65,1.77
		c-0.05,0.54,0.08,1,0.4,1.38c0.55,0.65,1.63,1.05,3.14,1.16c2.47,0.19,7.29-0.54,7.34-0.55c0.15-0.03,0.28,0.08,0.31,0.23
		c0.02,0.15-0.08,0.28-0.23,0.31C111.14,127.87,107.41,128.43,104.8,128.43z"/>
</g>
<g>
	<path d="M107.28,124.71c-2.42,0-4.51-0.45-5.64-1.3c-0.53-0.39-0.81-0.85-0.86-1.35c-0.08-0.85,0.14-1.57,0.66-2.13
		c0.9-0.98,2.68-1.46,5.35-1.45c0.02,0,0.04,0,0.06,0c1.9,0,3.74-0.4,5.49-1.18c0.13-0.06,0.29,0,0.35,0.14
		c0.06,0.13,0,0.29-0.14,0.35c-1.83,0.82-3.77,1.2-5.76,1.22c-0.03,0-0.06,0-0.09,0c-2.45,0-4.08,0.43-4.86,1.28
		c-0.41,0.45-0.58,1.01-0.52,1.72c0.03,0.34,0.25,0.67,0.65,0.97c1.4,1.04,5.09,1.64,9.46,0.78c0.14-0.03,0.29,0.07,0.32,0.21
		c0.03,0.15-0.07,0.29-0.21,0.32C110.08,124.57,108.63,124.71,107.28,124.71z"/>
</g>
<g>
	<path d="M105.01,84.37c-0.07,0-0.13-0.02-0.18-0.07c-5.17-4.84-11.19-5.98-12.39-6.17c-0.29,0.81-1.36,3.64-2.82,5
		c-0.11,0.1-0.28,0.09-0.38-0.01c-0.1-0.11-0.09-0.28,0.01-0.38c1.57-1.46,2.74-4.95,2.75-4.99c0.04-0.12,0.16-0.2,0.28-0.18
		c0.07,0.01,7.03,0.84,12.91,6.34c0.11,0.1,0.11,0.27,0.01,0.38C105.15,84.34,105.08,84.37,105.01,84.37z"/>
</g>
<g>
	<path d="M97.36,91.16c-0.94,0-1.92-0.53-2.32-1.06c-0.27-0.35-0.25-0.64-0.18-0.82c0.11-0.3,0.31-0.64,0.55-1.04
		c0.61-1,1.43-2.37,1.62-4.56c0.01-0.15,0.14-0.27,0.29-0.25c0.15,0.01,0.26,0.14,0.25,0.29c-0.2,2.31-1.1,3.81-1.69,4.79
		c-0.22,0.37-0.41,0.69-0.5,0.94c-0.04,0.1,0.05,0.24,0.11,0.32c0.33,0.44,1.25,0.91,2.01,0.84c0.16,0,0.28,0.1,0.29,0.25
		c0.01,0.15-0.1,0.28-0.25,0.29C97.46,91.16,97.41,91.16,97.36,91.16z"/>
</g>
<g>
	<path d="M264.01,177.11H15.72c-0.14,0-0.25-0.2-0.25-0.45c0-0.25,0.11-0.45,0.25-0.45h248.29c0.14,0,0.25,0.2,0.25,0.45
		C264.27,176.91,264.15,177.11,264.01,177.11z"/>
</g>
<g>
	<path d="M177.37,119.45c-0.15,0-0.27-0.12-0.27-0.27v-3.5c0-0.15,0.12-0.27,0.27-0.27c0.15,0,0.27,0.12,0.27,0.27v3.5
		C177.64,119.33,177.52,119.45,177.37,119.45z"/>
</g>
<g>
	<path d="M189.04,119.16c-0.14,0-0.26-0.11-0.27-0.25l-0.19-3.15c-0.01-0.15,0.1-0.28,0.25-0.28c0.15,0,0.28,0.1,0.28,0.25
		l0.19,3.15c0.01,0.15-0.1,0.28-0.25,0.28C189.05,119.16,189.04,119.16,189.04,119.16z"/>
</g>
<g>
	<path d="M173.88,102.05c-0.14,0-0.25-0.1-0.27-0.24c0-0.04-0.48-4.54-0.46-6.88c0-0.08-0.07-2.3,1.6-3.62
		c0.46-0.36,0.91-0.59,1.41-0.71c0.32-0.44,1.84-2.32,4.44-2.78c4.02-0.71,9.14,0.48,11.13,4.12c0.95,1.73,2.38,4.34,0.99,9.9
		c-0.04,0.14-0.18,0.23-0.33,0.2c-0.14-0.04-0.23-0.18-0.2-0.33c1.34-5.36-0.03-7.86-0.94-9.52c-1.88-3.42-6.74-4.53-10.57-3.85
		c-2.65,0.47-4.14,2.61-4.15,2.64c-0.04,0.06-0.1,0.1-0.17,0.11c-0.46,0.1-0.87,0.3-1.29,0.63c-1.45,1.15-1.39,3.17-1.39,3.19
		c-0.02,2.32,0.45,6.79,0.46,6.83c0.02,0.15-0.09,0.28-0.24,0.3C173.9,102.05,173.89,102.05,173.88,102.05z"/>
</g>
<g>
	<path d="M182.48,116.58c-2.89,0-6.26-0.65-7.2-2.52c-0.9-1.8-0.67-11.68-0.66-12.1c0-0.15,0.12-0.23,0.28-0.26
		c0.15,0,0.27,0.13,0.26,0.28c-0.07,2.82-0.1,10.45,0.6,11.85c0.85,1.7,4.36,2.33,7.47,2.21c0.15,0.01,0.27,0.11,0.28,0.26
		c0.01,0.15-0.11,0.27-0.26,0.28C183,116.58,182.74,116.58,182.48,116.58z"/>
</g>
<g>
	<g>
		<path d="M185.54,112.46c-0.43,0-0.86-0.09-1.27-0.28c-0.62-0.29-1.07-0.75-1.17-1.21c-0.09-0.4,0.02-0.76,0.29-1.02
			c0.34-0.32,0.89-0.42,1.44-0.28c0.7,0.19,0.78,0.15,0.93,0.06c0.16-0.09,0.23-0.13,0.46-0.82c0.18-0.54,0.57-0.94,1.02-1.05
			c0.36-0.09,0.72,0.03,1.01,0.32c0.3,0.31,0.43,0.9,0.33,1.57c-0.15,1-0.73,1.87-1.55,2.31
			C186.55,112.33,186.05,112.46,185.54,112.46z M183.63,110.86c0.05,0.23,0.34,0.59,0.87,0.83c0.34,0.16,1.25,0.47,2.27-0.09
			c0.67-0.36,1.15-1.08,1.28-1.92c0.08-0.56-0.03-0.97-0.18-1.12c-0.16-0.16-0.32-0.21-0.5-0.17c-0.27,0.06-0.52,0.34-0.63,0.7
			c-0.27,0.82-0.41,0.96-0.71,1.12c-0.31,0.17-0.5,0.21-1.33-0.02c-0.37-0.1-0.73-0.04-0.93,0.15
			C183.62,110.47,183.58,110.64,183.63,110.86L183.63,110.86z"/>
	</g>
</g>
<g>
	<path d="M108.45,147.21H85.86c-1.42,0-2.58-1.16-2.58-2.58v-31.6c0-1.42,1.16-2.58,2.58-2.58h1.83c0.15,0,0.27,0.12,0.27,0.27
		s-0.12,0.27-0.27,0.27h-1.83c-1.13,0-2.04,0.92-2.04,2.04v31.6c0,1.13,0.92,2.04,2.04,2.04h22.59c1.13,0,2.04-0.92,2.04-2.04
		v-13.55c0-0.15,0.12-0.27,0.27-0.27c0.15,0,0.27,0.12,0.27,0.27v13.55C111.02,146.05,109.87,147.21,108.45,147.21z"/>
</g>
<g>
	<path d="M110.76,118.44c-0.15,0-0.27-0.12-0.27-0.27v-5.15c0-1.13-0.92-2.04-2.04-2.04H87.69c-0.15,0-0.27-0.12-0.27-0.27
		s0.12-0.27,0.27-0.27h20.76c1.42,0,2.58,1.16,2.58,2.58v5.15C111.02,118.32,110.9,118.44,110.76,118.44z"/>
</g>
<g>
	<path d="M106.71,131.79c-0.15,0-0.3,0-0.46-0.01c-1.47-0.04-4.55-0.12-5.55-1.84c-0.02-0.04-0.04-0.08-0.06-0.11
		c-0.83-1.73,0.12-2.6,0.17-2.64c0.11-0.1,0.28-0.09,0.38,0.02c0.1,0.11,0.09,0.28-0.02,0.38c-0.03,0.02-0.68,0.66-0.04,2l0.04,0.08
		c0.85,1.45,3.83,1.53,5.1,1.57c2.49,0.06,4.98-0.43,7.24-1.45c1.87-0.84,2.62-3.07,2.9-4.33c0.46-2.09,0.34-4.44-0.36-6.63
		c-1.52-4.78-5.22-4.46-5.26-4.45c-0.14,0.02-0.28-0.09-0.29-0.24c-0.01-0.15,0.09-0.28,0.24-0.29c0.03,0,4.17-0.37,5.83,4.82
		c0.73,2.28,0.86,4.73,0.37,6.91c-0.3,1.35-1.12,3.76-3.2,4.7C111.53,131.27,109.12,131.79,106.71,131.79z"/>
</g>
<g>
	<path d="M124.17,139.8c-0.12,0-0.23-0.08-0.26-0.21c-3.5-14.62-7.54-19.79-7.58-19.84c-0.09-0.12-0.07-0.29,0.04-0.38
		c0.12-0.09,0.28-0.07,0.38,0.04c0.17,0.21,4.15,5.29,7.69,20.05c0.03,0.14-0.05,0.29-0.2,0.32
		C124.21,139.8,124.19,139.8,124.17,139.8z"/>
</g>
<g>
	<path d="M73.1,154.78c-0.92,0-1.81-0.13-2.66-0.37c-9.9-2.84-7.23-15.15-6.35-19.2c0.23-1.04,0.45-2.08,0.67-3.13
		c0.98-4.55,1.99-9.25,3.17-13.81c2.75-10.56,10.39-17.61,19.95-18.4c0.16-0.02,0.28,0.1,0.29,0.25c0.01,0.15-0.1,0.28-0.25,0.29
		c-9.32,0.77-16.78,7.67-19.47,18c-1.19,4.55-2.19,9.25-3.17,13.79c-0.22,1.04-0.45,2.09-0.67,3.13
		c-0.85,3.92-3.44,15.87,5.97,18.57c4.37,1.25,10.12-0.75,13.1-8.06c0.06-0.14,0.21-0.2,0.35-0.15c0.14,0.06,0.2,0.21,0.15,0.35
		C81.66,152.25,77.17,154.78,73.1,154.78z"/>
</g>
<g>
	<path d="M70.13,139.8c-0.02,0-0.04,0-0.06-0.01c-0.14-0.04-0.23-0.18-0.2-0.32c3.53-14.74,7.79-22.65,7.83-22.73
		c0.07-0.13,0.23-0.18,0.37-0.11c0.13,0.07,0.18,0.23,0.11,0.37c-0.04,0.08-4.27,7.94-7.78,22.6
		C70.36,139.72,70.25,139.8,70.13,139.8z"/>
</g>
<g>
	<path d="M83.43,125.69c-0.02,0-0.04,0-0.05,0c-1.22-0.25-2.12-0.77-3.21-1.86c-3.43-3.43-2.93-7.76-1.02-10.33
		c0.8-1.07,1.55-1.63,2.74-2.34c0.13-0.07,0.29-0.03,0.37,0.09c0.08,0.13,0.03,0.29-0.09,0.37c-1.16,0.69-1.84,1.19-2.58,2.19
		c-1.78,2.39-2.23,6.43,0.97,9.63c1.01,1.01,1.83,1.49,2.93,1.71c0.15,0.03,0.24,0.17,0.21,0.32
		C83.67,125.61,83.56,125.69,83.43,125.69z"/>
</g>
<g>
	<path d="M256.64,77.95c-0.04,0-0.09-0.01-0.13-0.03c-0.13-0.07-0.18-0.23-0.11-0.37c0.31-0.56,0.79-1.48,1.34-2.68
		c0.06-0.13,0.22-0.2,0.36-0.13c0.14,0.06,0.2,0.22,0.13,0.36c-0.55,1.21-1.04,2.15-1.36,2.72
		C256.83,77.9,256.74,77.95,256.64,77.95z M259.16,72.47c-0.03,0-0.06-0.01-0.1-0.02c-0.14-0.05-0.21-0.21-0.16-0.35
		c0.36-0.94,0.69-1.89,0.99-2.83c0.04-0.14,0.19-0.22,0.34-0.18c0.14,0.04,0.22,0.2,0.17,0.34c-0.3,0.95-0.64,1.91-1,2.86
		C259.37,72.4,259.27,72.47,259.16,72.47z M260.98,66.72c-0.02,0-0.04,0-0.06-0.01c-0.14-0.04-0.23-0.18-0.2-0.33
		c0.24-0.97,0.45-1.96,0.62-2.93c0.03-0.15,0.17-0.24,0.31-0.22c0.15,0.03,0.24,0.17,0.22,0.31c-0.17,0.99-0.39,1.98-0.63,2.97
		C261.21,66.64,261.1,66.72,260.98,66.72z M262.02,60.79c-0.17-0.02-0.28-0.15-0.27-0.3c0.1-1.01,0.17-2.01,0.19-2.99
		c0-0.15,0.12-0.26,0.27-0.26c0.16,0,0.27,0.13,0.27,0.28c-0.02,0.99-0.09,2.01-0.19,3.03C262.27,60.69,262.16,60.79,262.02,60.79z
		 M262.16,54.77c-0.14,0-0.26-0.11-0.27-0.25c-0.06-1-0.16-2-0.31-2.97c-0.02-0.15,0.08-0.28,0.23-0.31
		c0.15-0.03,0.28,0.08,0.31,0.23c0.15,0.99,0.25,2.01,0.32,3.02c0.01,0.15-0.1,0.28-0.25,0.28
		C262.17,54.77,262.17,54.77,262.16,54.77z M261.26,48.82c-0.12,0-0.23-0.08-0.26-0.2c-0.24-0.97-0.53-1.93-0.86-2.86
		c-0.05-0.14,0.02-0.29,0.16-0.34c0.14-0.05,0.29,0.02,0.34,0.16c0.34,0.95,0.63,1.92,0.88,2.91c0.04,0.14-0.05,0.29-0.2,0.33
		C261.31,48.82,261.28,48.82,261.26,48.82z M259.25,43.15c-0.1,0-0.2-0.06-0.24-0.15c-0.42-0.89-0.89-1.78-1.4-2.64
		c-0.08-0.13-0.03-0.29,0.09-0.37c0.13-0.08,0.29-0.03,0.37,0.09c0.52,0.88,1,1.78,1.42,2.68c0.06,0.13,0,0.29-0.13,0.36
		C259.33,43.14,259.29,43.15,259.25,43.15z"/>
</g>
<g>
	<path d="M248.85,30.46c-0.06,0-0.12-0.02-0.16-0.06c-0.47-0.36-0.95-0.72-1.44-1.05c-0.12-0.09-0.15-0.25-0.07-0.37
		c0.08-0.12,0.25-0.15,0.37-0.07c0.5,0.34,0.99,0.7,1.46,1.07c0.12,0.09,0.14,0.26,0.05,0.38
		C249.01,30.42,248.93,30.46,248.85,30.46z M244.85,27.79c-0.04,0-0.09-0.01-0.13-0.04c-0.87-0.49-1.76-0.95-2.66-1.36
		c-0.14-0.06-0.2-0.22-0.13-0.36c0.06-0.14,0.22-0.2,0.36-0.13c0.91,0.42,1.82,0.88,2.7,1.38c0.13,0.07,0.17,0.24,0.1,0.37
		C245.04,27.74,244.95,27.79,244.85,27.79z M212.82,26.15c-0.1,0-0.2-0.06-0.25-0.16c-0.06-0.14,0-0.29,0.14-0.35
		c0.04-0.02,1.07-0.48,2.87-1.02c0.15-0.04,0.29,0.04,0.33,0.18c0.04,0.14-0.04,0.29-0.18,0.34c-1.76,0.54-2.8,0.99-2.81,1
		C212.89,26.15,212.85,26.15,212.82,26.15z M239.38,25.29c-0.03,0-0.06,0-0.09-0.02c-0.93-0.33-1.89-0.62-2.86-0.86
		c-0.14-0.04-0.23-0.18-0.2-0.33c0.04-0.14,0.19-0.23,0.33-0.19c0.99,0.25,1.96,0.54,2.91,0.88c0.14,0.05,0.21,0.2,0.16,0.34
		C239.59,25.22,239.49,25.29,239.38,25.29z M218.57,24.37c-0.12,0-0.23-0.08-0.26-0.21c-0.03-0.15,0.06-0.29,0.2-0.32
		c0.98-0.22,1.98-0.41,2.98-0.56c0.15-0.03,0.28,0.08,0.31,0.23c0.02,0.15-0.08,0.28-0.23,0.31c-0.99,0.15-1.98,0.34-2.94,0.55
		C218.61,24.37,218.59,24.37,218.57,24.37z M233.54,23.82c-1.02-0.16-2.02-0.28-3.01-0.36c-0.15-0.01-0.26-0.14-0.25-0.29
		c0.01-0.15,0.15-0.26,0.29-0.25c1.01,0.08,2.02,0.2,3.01,0.36c0.15,0.02,0.25,0.16,0.22,0.31
		C233.79,23.72,233.67,23.82,233.54,23.82z M224.53,23.47c-0.14,0-0.26-0.11-0.27-0.25c-0.01-0.15,0.1-0.28,0.25-0.29
		c1.01-0.08,2.03-0.12,3.03-0.12c0.15,0,0.27,0.12,0.27,0.27c0,0.15-0.12,0.27-0.27,0.27c-0.98,0-1.99,0.04-2.99,0.12
		C224.54,23.47,224.54,23.47,224.53,23.47z"/>
</g>
<g>
	<path d="M107.55,38.22c-0.13,0-0.25-0.01-0.37-0.02c-0.15-0.01-0.26-0.15-0.24-0.29c0.01-0.15,0.15-0.26,0.29-0.24
		c0.44,0.04,0.93-0.01,1.45-0.16c0.45-0.13,0.87-0.32,1.23-0.56c0.12-0.08,0.29-0.05,0.37,0.08c0.08,0.12,0.05,0.29-0.08,0.37
		c-0.41,0.27-0.87,0.48-1.38,0.62C108.39,38.16,107.96,38.22,107.55,38.22z M104.75,36.65c-0.08,0-0.17-0.04-0.22-0.11
		c-0.51-0.72-0.93-1.68-1.24-2.83c-0.04-0.14,0.05-0.29,0.19-0.33c0.15-0.04,0.29,0.05,0.33,0.19c0.29,1.1,0.69,1.99,1.16,2.66
		c0.08,0.12,0.06,0.29-0.06,0.37C104.86,36.63,104.8,36.65,104.75,36.65z M111.87,35.1c-0.03,0-0.06-0.01-0.1-0.02
		c-0.14-0.05-0.21-0.21-0.16-0.35c0.3-0.8,0.48-1.76,0.52-2.87c0-0.15,0.12-0.26,0.27-0.26c0.16,0.01,0.27,0.13,0.27,0.28
		c-0.04,1.16-0.23,2.18-0.55,3.04C112.08,35.04,111.98,35.1,111.87,35.1z M103.03,30.93c-0.14,0-0.25-0.1-0.27-0.24
		c-0.08-0.79-0.12-1.58-0.12-2.37c0-0.23,0-0.46,0.01-0.67c0-0.15,0.12-0.26,0.27-0.26c0.16,0,0.27,0.13,0.27,0.28
		c-0.01,0.21-0.01,0.43-0.01,0.66c0,0.76,0.04,1.56,0.11,2.32c0.01,0.15-0.09,0.28-0.24,0.29
		C103.04,30.93,103.03,30.93,103.03,30.93z M112.23,29.15c-0.13,0-0.25-0.1-0.27-0.23c-0.12-0.92-0.31-1.91-0.56-2.93
		c-0.03-0.14,0.05-0.29,0.2-0.32c0.14-0.04,0.29,0.05,0.32,0.2c0.25,1.05,0.44,2.05,0.57,2.99c0.02,0.15-0.08,0.28-0.23,0.3
		C112.26,29.14,112.25,29.15,112.23,29.15z M103.25,24.93c-0.19-0.03-0.29-0.17-0.26-0.32c0.17-0.98,0.41-1.98,0.7-2.96
		c0.04-0.14,0.19-0.22,0.33-0.18c0.14,0.04,0.22,0.19,0.18,0.33c-0.29,0.96-0.52,1.94-0.69,2.9
		C103.49,24.84,103.38,24.93,103.25,24.93z M44.46,24.31c-0.06,0-0.11-0.02-0.16-0.05c-0.12-0.09-0.15-0.26-0.06-0.38
		c0.58-0.8,1.22-1.59,1.89-2.37c0.1-0.11,0.27-0.12,0.38-0.03c0.11,0.1,0.12,0.27,0.03,0.38c-0.66,0.76-1.29,1.55-1.87,2.34
		C44.62,24.27,44.54,24.31,44.46,24.31z M110.85,23.28c-0.11,0-0.22-0.07-0.26-0.19c-0.31-0.96-0.67-1.93-1.02-2.81
		c-0.06-0.14,0.01-0.29,0.15-0.35c0.14-0.06,0.29,0.01,0.35,0.15c0.36,0.89,0.72,1.88,1.04,2.85c0.05,0.14-0.03,0.29-0.17,0.34
		C110.91,23.28,110.88,23.28,110.85,23.28z M173.16,22.8c-0.11,0-0.21-0.06-0.25-0.17c-0.06-0.15-0.12-0.3-0.19-0.46
		c-0.06-0.14,0.01-0.29,0.14-0.35c0.14-0.06,0.29,0.01,0.35,0.14c0.06,0.15,0.13,0.31,0.19,0.46c0.05,0.14-0.01,0.29-0.15,0.35
		C173.23,22.79,173.19,22.8,173.16,22.8z M48.4,19.75c-0.07,0-0.14-0.03-0.19-0.08c-0.1-0.11-0.1-0.28,0-0.38
		c0.7-0.7,1.45-1.39,2.22-2.06c0.11-0.1,0.28-0.09,0.38,0.03c0.1,0.11,0.09,0.28-0.03,0.38c-0.76,0.66-1.5,1.35-2.19,2.04
		C48.54,19.73,48.47,19.75,48.4,19.75z M171.7,19.61c-0.1,0-0.19-0.05-0.24-0.15c-0.46-0.89-0.96-1.76-1.49-2.59
		c-0.08-0.13-0.04-0.29,0.08-0.37c0.13-0.08,0.29-0.04,0.37,0.08c0.54,0.85,1.05,1.73,1.51,2.63c0.07,0.13,0.02,0.29-0.11,0.36
		C171.79,19.6,171.75,19.61,171.7,19.61z M104.95,19.16c-0.03,0-0.07-0.01-0.1-0.02c-0.14-0.06-0.2-0.21-0.14-0.35
		c0.38-0.92,0.83-1.85,1.31-2.74c0.07-0.13,0.23-0.18,0.36-0.11c0.13,0.07,0.18,0.23,0.11,0.36c-0.47,0.88-0.91,1.79-1.29,2.69
		C105.16,19.1,105.06,19.16,104.95,19.16z M108.54,17.73c-0.1,0-0.19-0.05-0.24-0.14c-0.48-0.88-1-1.73-1.56-2.54
		c-0.08-0.12-0.05-0.29,0.07-0.37c0.12-0.08,0.29-0.06,0.38,0.07c0.57,0.82,1.11,1.69,1.59,2.59c0.07,0.13,0.02,0.29-0.11,0.36
		C108.62,17.72,108.58,17.73,108.54,17.73z M52.94,15.8c-0.08,0-0.16-0.04-0.21-0.1c-0.09-0.12-0.07-0.29,0.05-0.38
		c0.78-0.6,1.61-1.2,2.45-1.78c0.12-0.08,0.29-0.05,0.37,0.07c0.08,0.12,0.05,0.29-0.07,0.37c-0.83,0.57-1.65,1.16-2.43,1.76
		C53.05,15.78,52.99,15.8,52.94,15.8z M168.48,14.53c-0.08,0-0.16-0.04-0.21-0.1c-0.6-0.78-1.25-1.55-1.93-2.28
		c-0.1-0.11-0.09-0.28,0.01-0.38c0.11-0.1,0.28-0.09,0.38,0.01c0.69,0.74,1.35,1.52,1.96,2.32c0.09,0.12,0.07,0.29-0.05,0.38
		C168.59,14.51,168.53,14.53,168.48,14.53z M107.81,13.87c-0.05,0-0.1-0.02-0.15-0.05c-0.12-0.08-0.16-0.25-0.07-0.37
		c0.56-0.84,1.17-1.66,1.81-2.44c0.1-0.12,0.26-0.13,0.38-0.04c0.11,0.09,0.13,0.26,0.04,0.38c-0.63,0.77-1.23,1.57-1.78,2.4
		C107.98,13.83,107.89,13.87,107.81,13.87z M105.09,12.8c-0.07,0-0.15-0.03-0.2-0.09c-0.66-0.74-1.37-1.44-2.12-2.09
		c-0.11-0.1-0.12-0.27-0.03-0.38c0.1-0.11,0.27-0.12,0.38-0.02c0.76,0.67,1.49,1.39,2.16,2.14c0.1,0.11,0.09,0.28-0.02,0.38
		C105.22,12.78,105.16,12.8,105.09,12.8z M57.91,12.4c-0.09,0-0.18-0.05-0.23-0.13c-0.08-0.13-0.04-0.29,0.09-0.37
		c0.85-0.52,1.74-1.03,2.62-1.51c0.13-0.07,0.29-0.02,0.37,0.11c0.07,0.13,0.02,0.29-0.11,0.36c-0.88,0.48-1.75,0.98-2.6,1.5
		C58,12.38,57.95,12.4,57.91,12.4z M164.38,10.12c-0.06,0-0.13-0.02-0.18-0.07c-0.74-0.66-1.52-1.3-2.31-1.89
		c-0.12-0.09-0.14-0.26-0.06-0.38c0.09-0.12,0.26-0.14,0.38-0.06c0.81,0.6,1.6,1.25,2.35,1.92c0.11,0.1,0.12,0.27,0.02,0.38
		C164.53,10.09,164.46,10.12,164.38,10.12z M63.2,9.51c-0.1,0-0.2-0.06-0.24-0.15C62.89,9.23,62.95,9.06,63.08,9
		c0.9-0.44,1.83-0.86,2.76-1.26c0.14-0.06,0.29,0,0.35,0.14c0.06,0.14,0,0.29-0.14,0.35c-0.92,0.39-1.83,0.81-2.73,1.25
		C63.28,9.5,63.24,9.51,63.2,9.51z M111.63,9.21c-0.07,0-0.14-0.03-0.19-0.08c-0.11-0.1-0.11-0.28,0-0.38
		c0.72-0.72,1.47-1.41,2.25-2.04c0.11-0.09,0.28-0.08,0.38,0.04c0.09,0.11,0.08,0.28-0.04,0.38c-0.76,0.63-1.51,1.3-2.21,2.01
		C111.76,9.19,111.7,9.21,111.63,9.21z M100.57,8.84c-0.05,0-0.1-0.02-0.15-0.05c-0.81-0.55-1.67-1.07-2.56-1.52
		c-0.13-0.07-0.18-0.23-0.11-0.36c0.07-0.13,0.23-0.18,0.36-0.11c0.9,0.47,1.78,0.99,2.61,1.56c0.12,0.08,0.15,0.25,0.07,0.37
		C100.74,8.8,100.66,8.84,100.57,8.84z M68.74,7.14c-0.11,0-0.21-0.07-0.25-0.17c-0.05-0.14,0.02-0.29,0.16-0.35
		c0.95-0.36,1.91-0.69,2.86-0.99c0.14-0.04,0.29,0.03,0.34,0.17c0.04,0.14-0.03,0.29-0.17,0.34c-0.94,0.3-1.89,0.63-2.84,0.98
		C68.8,7.13,68.77,7.14,68.74,7.14z M159.56,6.53c-0.05,0-0.1-0.01-0.14-0.04c-0.84-0.52-1.71-1.01-2.61-1.46
		c-0.13-0.07-0.19-0.23-0.12-0.36c0.07-0.13,0.23-0.19,0.36-0.12c0.91,0.46,1.8,0.96,2.65,1.48c0.13,0.08,0.16,0.24,0.09,0.37
		C159.74,6.48,159.65,6.53,159.56,6.53z M95.24,6.07c-0.03,0-0.06-0.01-0.1-0.02c-0.92-0.35-1.87-0.66-2.84-0.92
		c-0.14-0.04-0.23-0.19-0.19-0.33c0.04-0.14,0.18-0.23,0.33-0.19c0.99,0.26,1.96,0.58,2.89,0.94c0.14,0.05,0.21,0.21,0.16,0.35
		C95.45,6,95.35,6.07,95.24,6.07z M116.29,5.41c-0.09,0-0.17-0.04-0.22-0.12c-0.08-0.12-0.05-0.29,0.08-0.37
		c0.86-0.56,1.75-1.07,2.64-1.52c0.14-0.07,0.29-0.01,0.36,0.12c0.07,0.13,0.01,0.29-0.12,0.36c-0.87,0.43-1.74,0.93-2.59,1.49
		C116.39,5.39,116.34,5.41,116.29,5.41z M74.48,5.31c-0.12,0-0.23-0.08-0.26-0.2c-0.04-0.14,0.05-0.29,0.19-0.33
		c0.98-0.25,1.98-0.47,2.96-0.64c0.14-0.03,0.29,0.07,0.31,0.22c0.03,0.15-0.07,0.29-0.22,0.31c-0.97,0.17-1.96,0.39-2.92,0.63
		C74.53,5.31,74.5,5.31,74.48,5.31z M89.43,4.51c-1.01-0.16-2.01-0.28-3.01-0.35c-0.15-0.01-0.26-0.14-0.25-0.29
		c0.01-0.15,0.14-0.25,0.29-0.25c1.02,0.07,2.03,0.19,3.02,0.35c0.15,0.02,0.25,0.16,0.22,0.31C89.67,4.42,89.56,4.51,89.43,4.51z
		 M80.41,4.26c-0.14,0-0.25-0.1-0.27-0.24c-0.01-0.15,0.09-0.28,0.24-0.29c1.01-0.1,2.03-0.16,3.03-0.17c0.15,0,0.27,0.12,0.27,0.26
		c0,0.15-0.12,0.27-0.26,0.27c-0.99,0.02-1.99,0.07-2.99,0.17C80.43,4.26,80.42,4.26,80.41,4.26z M154.19,3.81
		c-0.03,0-0.07-0.01-0.1-0.02c-0.91-0.37-1.85-0.72-2.81-1.03c-0.14-0.05-0.22-0.2-0.17-0.34c0.05-0.14,0.2-0.22,0.34-0.17
		c0.97,0.32,1.93,0.67,2.85,1.05c0.14,0.06,0.2,0.21,0.15,0.35C154.4,3.74,154.3,3.81,154.19,3.81z M121.68,2.73
		c-0.11,0-0.21-0.07-0.25-0.18c-0.05-0.14,0.03-0.29,0.17-0.34c0.63-0.22,1.28-0.41,1.91-0.57c0.34-0.08,0.67-0.17,1.01-0.24
		c0.15-0.03,0.29,0.06,0.32,0.2c0.03,0.14-0.06,0.29-0.2,0.32c-0.34,0.08-0.67,0.16-1,0.24c-0.62,0.16-1.25,0.34-1.87,0.56
		C121.74,2.73,121.71,2.73,121.68,2.73z M148.47,1.94c-0.02,0-0.04,0-0.07-0.01c-0.95-0.24-1.94-0.45-2.93-0.63
		c-0.15-0.03-0.24-0.17-0.22-0.31c0.03-0.15,0.16-0.24,0.31-0.22c1,0.18,2,0.39,2.96,0.63c0.14,0.04,0.23,0.18,0.2,0.33
		C148.7,1.86,148.59,1.94,148.47,1.94z M127.53,1.33c-0.13,0-0.24-0.09-0.26-0.22c-0.03-0.15,0.07-0.29,0.22-0.31
		c0.99-0.17,2-0.32,3-0.43c0.16-0.02,0.28,0.09,0.3,0.24c0.02,0.15-0.09,0.28-0.24,0.3c-0.99,0.12-1.99,0.26-2.97,0.43
		C127.56,1.33,127.55,1.33,127.53,1.33z M142.54,0.87c-1.02-0.11-2.02-0.2-3.02-0.25c-0.15-0.01-0.26-0.13-0.25-0.28
		c0.01-0.15,0.14-0.24,0.28-0.25c1.01,0.06,2.02,0.14,3.02,0.25c0.15,0.02,0.25,0.15,0.24,0.3C142.79,0.77,142.68,0.87,142.54,0.87z
		 M133.51,0.63c-0.14,0-0.26-0.11-0.27-0.25c-0.01-0.15,0.1-0.28,0.25-0.28c1.01-0.06,2.03-0.09,3.03-0.1
		c0.15,0,0.27,0.12,0.27,0.27c0,0.15-0.12,0.27-0.27,0.27c-0.99,0-2,0.04-3,0.1C133.52,0.63,133.52,0.63,133.51,0.63z"/>
</g>
<g>
	<path d="M130.69,143.94c-0.09,0-0.19-0.05-0.23-0.14c-0.07-0.13-0.03-0.29,0.1-0.37c4.49-2.51,8.56-5.7,12.08-9.48
		c0.1-0.11,0.27-0.12,0.38-0.01c0.11,0.1,0.11,0.27,0.01,0.38c-3.56,3.82-7.67,7.04-12.21,9.58
		C130.78,143.93,130.74,143.94,130.69,143.94z"/>
</g>
<g>
	<path d="M65.61,129.1c-0.08,0-0.17-0.04-0.22-0.11c-5.97-8.47-9.13-18.45-9.13-28.85c0-27.64,22.49-50.13,50.13-50.13
		c12.66,0,24.74,4.73,34.03,13.32c9.23,8.54,14.89,20.12,15.92,32.61c0.01,0.15-0.1,0.28-0.25,0.29c-0.17,0.02-0.28-0.1-0.29-0.25
		c-2.11-25.48-23.82-45.44-49.42-45.44c-27.34,0-49.59,22.25-49.59,49.59c0,10.29,3.12,20.16,9.03,28.54
		c0.09,0.12,0.06,0.29-0.06,0.38C65.71,129.08,65.66,129.1,65.61,129.1z"/>
</g>
<g>
	<path d="M97.25,166.72c-0.15,0-0.27-0.12-0.27-0.27v-15.48c0-0.15,0.12-0.27,0.27-0.27c0.15,0,0.27,0.12,0.27,0.27v15.48
		C97.52,166.6,97.39,166.72,97.25,166.72z"/>
</g>
<g>
	<path d="M97.99,93.82c-0.31,0-0.65-0.05-1.01-0.14c-0.14-0.04-0.23-0.19-0.19-0.33c0.04-0.14,0.18-0.23,0.33-0.19
		c0.84,0.22,1.5,0.15,1.97-0.23c0.91-0.73,0.85-2.37,0.85-2.39c-0.01-0.15,0.11-0.27,0.26-0.28c0.15,0.01,0.27,0.11,0.28,0.26
		c0,0.08,0.07,1.92-1.05,2.83C99.04,93.66,98.55,93.82,97.99,93.82z"/>
</g>
<g>
	<path d="M180.77,108.5c-0.07,0-0.14-0.03-0.19-0.08c-0.88-0.87-1.56-0.75-2.28-0.63l-0.15,0.03c-0.96,0.15-1.94-0.29-2.41-1.1
		c-0.23-0.39-0.31-5.84-0.3-6.54c0-0.15,0.12-0.26,0.27-0.26c0.15,0,0.27,0.12,0.27,0.27c-0.02,1.42,0.12,5.91,0.24,6.29
		c0.35,0.59,1.09,0.93,1.85,0.81l0.15-0.02c0.75-0.12,1.67-0.28,2.75,0.78c0.11,0.1,0.11,0.27,0,0.38
		C180.91,108.48,180.84,108.5,180.77,108.5z"/>
</g>
<g>
	<path d="M184.37,116.59c-0.38,0-0.75-0.01-1.08-0.02c-0.15-0.01-0.26-0.13-0.26-0.28c0.01-0.15,0.12-0.27,0.28-0.26
		c3.98,0.15,6.67-0.54,7.37-1.93c0.68-1.35,0.73-8.53,0.67-12.14c0-0.15,0.12-0.27,0.26-0.27c0.17,0,0.27,0.12,0.27,0.26
		c0.01,0.43,0.17,10.58-0.73,12.39C190.22,116.22,186.86,116.59,184.37,116.59z"/>
</g>
<g>
	<path d="M190.98,100.45c-0.1,0-0.19-0.05-0.24-0.15c-0.35-0.69-0.98-2.89-1.19-3.66c-0.55,0.15-1.8,0.5-2.32,0.59
		c-8.9,1.72-11.88-3.41-11.91-3.46c-0.07-0.13-0.03-0.29,0.1-0.37c0.13-0.07,0.29-0.03,0.37,0.1c0.03,0.05,2.85,4.84,11.34,3.2
		c0.63-0.12,2.51-0.65,2.53-0.66c0.07-0.02,0.14-0.01,0.21,0.02c0.06,0.04,0.11,0.09,0.13,0.16c0.01,0.03,0.83,3.05,1.22,3.82
		c0.07,0.13,0.01,0.29-0.12,0.36C191.06,100.44,191.02,100.45,190.98,100.45z"/>
</g>
<g>
	<path d="M175.7,100.45c-0.07,0-0.14-0.03-0.19-0.08c-0.1-0.11-0.1-0.28,0.01-0.38c0.41-0.39,1.04-3,1.34-4.54
		c0.03-0.14,0.16-0.25,0.32-0.21c0.15,0.03,0.24,0.17,0.21,0.32c-0.14,0.7-0.84,4.2-1.5,4.83
		C175.84,100.43,175.77,100.45,175.7,100.45z"/>
</g>
<g>
	<path d="M183.68,108.38c-1.26-0.1-2.1-0.7-2.46-1.22c-0.23-0.33-0.32-0.68-0.24-0.97c0.17-0.63,2-5.47,2.07-5.68
		c0.05-0.14,0.21-0.21,0.35-0.16c0.14,0.05,0.21,0.21,0.16,0.35c-0.02,0.05-1.89,5.02-2.06,5.63c-0.04,0.13,0.02,0.33,0.16,0.52
		c0.3,0.42,0.99,0.91,2.04,0.99c0.15,0.01,0.26,0.14,0.25,0.29C183.94,108.28,183.82,108.38,183.68,108.38z"/>
</g>
<g>
	<path d="M104.18,118.98H88.91c-0.15,0-0.27-0.12-0.27-0.27c0-0.15,0.12-0.27,0.27-0.27h15.27c0.15,0,0.27,0.12,0.27,0.27
		C104.45,118.86,104.33,118.98,104.18,118.98z"/>
</g>
<g>
	<path d="M100.6,124.12H88.91c-0.15,0-0.27-0.12-0.27-0.27s0.12-0.27,0.27-0.27h11.69c0.15,0,0.27,0.12,0.27,0.27
		S100.75,124.12,100.6,124.12z"/>
</g>
<g>
	<path d="M100.57,129.27H88.91c-0.15,0-0.27-0.12-0.27-0.27c0-0.15,0.12-0.27,0.27-0.27h11.66c0.15,0,0.27,0.12,0.27,0.27
		C100.84,129.15,100.72,129.27,100.57,129.27z"/>
</g>
<g>
	<path d="M104.18,134.41H88.91c-0.15,0-0.27-0.12-0.27-0.27c0-0.15,0.12-0.27,0.27-0.27h15.27c0.15,0,0.27,0.12,0.27,0.27
		C104.45,134.29,104.33,134.41,104.18,134.41z"/>
</g>
<g>
	<path d="M91.15,76.7c-0.1,0-0.2-0.06-0.24-0.15l-0.65-1.36c-0.06-0.13-0.01-0.29,0.13-0.36c0.13-0.06,0.29-0.01,0.36,0.13
		l0.65,1.36c0.06,0.13,0.01,0.29-0.13,0.36C91.23,76.69,91.19,76.7,91.15,76.7z"/>
</g>
<g>
	<path d="M43.68,64.02H30.35c-0.15,0-0.27-0.12-0.27-0.27s0.12-0.27,0.27-0.27h13.33c0.15,0,0.27,0.12,0.27,0.27
		S43.83,64.02,43.68,64.02z"/>
</g>
<g>
	<path d="M43.68,67.18H30.35c-0.15,0-0.27-0.12-0.27-0.27c0-0.15,0.12-0.27,0.27-0.27h13.33c0.15,0,0.27,0.12,0.27,0.27
		C43.95,67.06,43.83,67.18,43.68,67.18z"/>
</g>
<g>
	<path d="M253.71,38.22c-2.42,0-4.39-1.97-4.39-4.39c0-2.42,1.97-4.39,4.39-4.39c2.42,0,4.39,1.97,4.39,4.39
		C258.11,36.25,256.14,38.22,253.71,38.22z M253.71,29.97c-2.13,0-3.86,1.73-3.86,3.86s1.73,3.86,3.86,3.86
		c2.13,0,3.86-1.73,3.86-3.86S255.84,29.97,253.71,29.97z"/>
</g>
</svg>
